<svg xmlns="http://www.w3.org/2000/svg" xmlns:xlink="http://www.w3.org/1999/xlink" xmlns:fi="http://pattern.flaticon.com/" x="0" y="0" width="720" height="360" viewBox="0 50 700 370"><rect x="0px" y="0px" width="100%" height="100%" opacity="1" fill="#ffffff"/><defs><g transform="matrix(0.07733980566263199 0 0 0.07733980566263199 264.2010097503662 240.2010097503662)" id="L1_0"><g><path d="M407.672,501.742l-40-136c-1.242-4.234-5.672-6.688-9.93-5.414     c-4.234,1.242-6.664,5.688-5.414,9.93L363.429,408H148.571l11.101-37.742c1.25-4.242-1.18-8.688-5.414-9.93     c-4.281-1.281-8.687,1.18-9.93,5.414l-40,136c-1.25,4.242,1.18,8.688,5.414,9.93C110.5,511.898,111.258,512,112,512     c3.461,0,6.648-2.258,7.672-5.742L143.865,424h224.269l24.193,82.258c1.023,3.484,4.211,5.742,7.672,5.742     c0.742,0,1.508-0.102,2.258-0.328C406.492,510.43,408.922,505.984,407.672,501.742z" fill="#5c546a"/><path d="M256,48c4.422,0,8-3.578,8-8V8c0-4.422-3.578-8-8-8s-8,3.578-8,8v32C248,44.422,251.578,48,256,48     z" fill="#5c546a"/></g><path d="M488,32H24c-4.422,0-8,3.578-8,8v312c0,13.234,10.766,24,24,24h432c13.234,0,24-10.766,24-24V40    C496,35.578,492.422,32,488,32z" fill="#ffffff"/><path d="M80,368 432,368 432,112 264,264 192,208 80,304.003z" fill="#ffe1b2"/><path d="M264,360 264,272 192,208 192,360z" fill="#fdc88e"/><path d="M88,312c-2.047,0-4.094-0.781-5.656-2.344c-3.125-3.125-3.125-8.188,0-11.312l92.687-92.687     c9.359-9.359,24.578-9.359,33.937,0l49.375,49.375c3.125,3.125,8.188,3.125,11.312,0l148.687-148.687     c3.125-3.125,8.188-3.125,11.312,0c3.125,3.125,3.125,8.187,0,11.312L280.969,266.344c-9.359,9.359-24.578,9.359-33.938,0     l-49.375-49.375c-3.125-3.125-8.188-3.125-11.312,0l-92.687,92.687C92.094,311.219,90.047,312,88,312z" fill="#ff4f19"/><path d="M424,192c-4.422,0-8-3.578-8-8v-64h-64c-4.422,0-8-3.578-8-8c0-4.422,3.578-8,8-8h72     c4.422,0,8,3.578,8,8v72C432,188.422,428.422,192,424,192z" fill="#ff4f19"/><path d="M480,48v304c0,4.411-3.589,8-8,8H40c-4.411,0-8-3.589-8-8V48H480 M488,32H24c-4.422,0-8,3.578-8,8    v312c0,13.234,10.766,24,24,24h432c13.234,0,24-10.766,24-24V40C496,35.578,492.422,32,488,32L488,32z" fill="#8b8996"/><path d="M8,56h496c4.418,0,8-3.582,8-8V32c0-4.418-3.582-8-8-8H8c-4.418,0-8,3.582-8,8v16    C0,52.418,3.582,56,8,56z" fill="#9f6459"/></g><g transform="matrix(0.09572698175907135 0 0 0.09572698175907135 1.4938926696777344 229.49389266967773)" id="L1_1"><g><path d="M264,176h208c22.055,0,40,17.945,40,40v112c0,22.055-17.945,40-40,40H360v32     c0,3.234-1.945,6.152-4.938,7.391C354.07,407.801,353.031,408,352,408c-2.078,0-4.125-0.812-5.656-2.344L308.687,368H264     c-22.055,0-40-17.945-40-40V216C224,193.945,241.945,176,264,176z" fill="#b9bbc1"/><path d="M440,232h24c4.422,0,8-3.582,8-8s-3.578-8-8-8h-24c-4.422,0-8,3.582-8,8S435.578,232,440,232z" fill="#8b8996"/><path d="M272,232h136c4.422,0,8-3.582,8-8s-3.578-8-8-8H272c-4.422,0-8,3.582-8,8S267.578,232,272,232z" fill="#8b8996"/><path d="M272,264h192c4.422,0,8-3.582,8-8s-3.578-8-8-8H272c-4.422,0-8,3.582-8,8S267.578,264,272,264z" fill="#8b8996"/><path d="M272,296h24c4.422,0,8-3.582,8-8s-3.578-8-8-8h-24c-4.422,0-8,3.582-8,8S267.578,296,272,296z" fill="#8b8996"/><path d="M328,296h136c4.422,0,8-3.582,8-8s-3.578-8-8-8H328c-4.422,0-8,3.582-8,8S323.578,296,328,296z" fill="#8b8996"/><path d="M272,328h192c4.422,0,8-3.582,8-8s-3.578-8-8-8H272c-4.422,0-8,3.582-8,8S267.578,328,272,328z" fill="#8b8996"/></g><g><path d="M248,104H40c-22.055,0-40,17.945-40,40v112c0,22.055,17.945,40,40,40h112v32     c0,3.234,1.945,6.152,4.938,7.391c0.992,0.41,2.031,0.609,3.062,0.609c2.078,0,4.125-0.812,5.656-2.344L203.312,296H248     c22.055,0,40-17.945,40-40V144C288,121.945,270.055,104,248,104z" fill="#d8dce1"/><path d="M72,160H48c-4.422,0-8-3.582-8-8s3.578-8,8-8h24c4.422,0,8,3.582,8,8S76.422,160,72,160z" fill="#8b8996"/><path d="M240,160H104c-4.422,0-8-3.582-8-8s3.578-8,8-8h136c4.422,0,8,3.582,8,8S244.422,160,240,160z" fill="#8b8996"/><path d="M240,192H48c-4.422,0-8-3.582-8-8s3.578-8,8-8h192c4.422,0,8,3.582,8,8S244.422,192,240,192z" fill="#8b8996"/><path d="M240,224h-24c-4.422,0-8-3.582-8-8s3.578-8,8-8h24c4.422,0,8,3.582,8,8S244.422,224,240,224z" fill="#8b8996"/><path d="M184,224H48c-4.422,0-8-3.582-8-8s3.578-8,8-8h136c4.422,0,8,3.582,8,8S188.422,224,184,224z" fill="#8b8996"/><path d="M240,256H48c-4.422,0-8-3.582-8-8s3.578-8,8-8h192c4.422,0,8,3.582,8,8S244.422,256,240,256z" fill="#8b8996"/></g></g><g transform="matrix(0.35744649171829224 0 0 0.35744649171829224 170.34057274516852 234.4372403659803)" id="L1_3"><path d="m117.932 87.349v-2.326a6.341 6.341 0 0 0 -6.332-6.333h-14.865v-37.859a.993.993 0 0 0 -.334-.744l-27.46-27.461a1 1 0 0 0 -.707-.293h-51.165a3 3 0 0 0 -3 3v101.334a3 3 0 0 0 3 3h94.531a6.342 6.342 0 0 0 6.334-6.334v-2.325a6.327 6.327 0 0 0 -2.934-5.333 6.331 6.331 0 0 0 2.932-5.334v-2.325a6.327 6.327 0 0 0 -2.932-5.333 6.331 6.331 0 0 0 2.932-5.334z" fill="#e6e7e8"/><path d="m73.569 109.333v-2.325a5.334 5.334 0 0 1 5.333-5.334 5.333 5.333 0 0 1 -5.333-5.333v-2.325a5.334 5.334 0 0 1 5.331-5.334 5.333 5.333 0 0 1 -5.333-5.333v-2.325a5.334 5.334 0 0 1 5.333-5.334h12.835v-38.857l-27.5-27.5h-51.166a2 2 0 0 0 -2 2v101.334a2 2 0 0 0 2 2h65.831a5.334 5.334 0 0 1 -5.331-5.334z" fill="#d4fbff"/><path d="m26.081 70.908a9.605 9.605 0 0 1 -3.346-1.664 1.823 1.823 0 0 1 -.314-2.535 1.11 1.11 0 0 1 .885-.465 2.45 2.45 0 0 1 1.23.42 8.992 8.992 0 0 0 2.7 1.35 10.879 10.879 0 0 0 3.121.42 6.144 6.144 0 0 0 3.36-.765 2.5 2.5 0 0 0 1.17-2.235 1.922 1.922 0 0 0 -1.1-1.755 14.541 14.541 0 0 0 -3.645-1.185 21.57 21.57 0 0 1 -4.29-1.32 6.076 6.076 0 0 1 -2.491-1.92 4.972 4.972 0 0 1 -.839-2.971 5.581 5.581 0 0 1 1.05-3.329 6.935 6.935 0 0 1 2.925-2.3 10.37 10.37 0 0 1 4.215-.824 10.471 10.471 0 0 1 6.99 2.279 2.268 2.268 0 0 1 .555.646 1.716 1.716 0 0 1 .165.8 1.69 1.69 0 0 1 -.375 1.095 1.109 1.109 0 0 1 -.885.464 1.662 1.662 0 0 1 -.556-.089 4.419 4.419 0 0 1 -.674-.331 10.206 10.206 0 0 0 -2.385-1.334 8.09 8.09 0 0 0 -2.835-.435 5.563 5.563 0 0 0 -3.226.825 2.642 2.642 0 0 0 -1.184 2.295 2.1 2.1 0 0 0 1.05 1.89 12.306 12.306 0 0 0 3.57 1.23 24.209 24.209 0 0 1 4.339 1.335 6.429 6.429 0 0 1 2.55 1.875 4.51 4.51 0 0 1 .884 2.851 5.441 5.441 0 0 1 -1.034 3.284 6.752 6.752 0 0 1 -2.91 2.22 10.947 10.947 0 0 1 -4.306.8 15.137 15.137 0 0 1 -4.364-.622z" fill="#fa759e"/><path d="m59.575 74.193a2.018 2.018 0 0 1 .33 1.051 1.378 1.378 0 0 1 -.54 1.125 1.954 1.954 0 0 1 -1.259.435 2.144 2.144 0 0 1 -1.021-.255 1.975 1.975 0 0 1 -.779-.766l-1.771-2.909a2.612 2.612 0 0 0 -1.094-1.02 4.016 4.016 0 0 0 -1.755-.33 10.45 10.45 0 0 1 -5.356-1.324 8.824 8.824 0 0 1 -3.495-3.78 14.077 14.077 0 0 1 0-11.505 8.848 8.848 0 0 1 3.495-3.765 10.45 10.45 0 0 1 5.356-1.32 10.39 10.39 0 0 1 5.325 1.32 8.846 8.846 0 0 1 3.494 3.765 12.634 12.634 0 0 1 1.23 5.745 12.456 12.456 0 0 1 -1.424 6.14 8.47 8.47 0 0 1 -4.066 3.734 4.336 4.336 0 0 1 2.281 1.981zm-3.344-7.769a8.928 8.928 0 0 0 1.634-5.76 8.864 8.864 0 0 0 -1.634-5.745 5.555 5.555 0 0 0 -4.545-1.995 5.586 5.586 0 0 0 -4.576 1.995 8.864 8.864 0 0 0 -1.634 5.745 8.928 8.928 0 0 0 1.634 5.76 5.568 5.568 0 0 0 4.576 2.01 5.537 5.537 0 0 0 4.545-2.01z" fill="#fa759e"/><path d="m66.115 70.774a1.783 1.783 0 0 1 -.479-1.32v-17.58a1.8 1.8 0 0 1 1.92-1.92 1.929 1.929 0 0 1 1.425.525 1.889 1.889 0 0 1 .525 1.4v16.2h8.43q1.8 0 1.8 1.59t-1.8 1.59h-10.47a1.828 1.828 0 0 1 -1.351-.485z" fill="#fa759e"/><path d="m13.069 12.333h54.165l-3-3h-51.165a2 2 0 0 0 -2 2v3a2 2 0 0 1 2-2z" fill="#ffffff"/><path d="m64.236 9.333v25.5a2 2 0 0 0 2 2h25.5z" fill="#6dc9f7"/><rect x="73px" y="101px" width="39px" height="12px" fill="#fa759e"/><path d="m100.285 106.448a1.723 1.723 0 1 0 1.723 1.722 1.723 1.723 0 0 0 -1.723-1.722z" fill="#ffd7e5"/><path d="m106.443 106.448a1.723 1.723 0 1 0 1.723 1.722 1.722 1.722 0 0 0 -1.723-1.722z" fill="#ffd7e5"/><rect x="73px" y="88px" width="39px" height="12px" fill="#fa759e"/><path d="m100.285 93.456a1.723 1.723 0 1 0 1.723 1.722 1.723 1.723 0 0 0 -1.723-1.722z" fill="#ffd7e5"/><path d="m106.443 93.456a1.723 1.723 0 1 0 1.723 1.722 1.722 1.722 0 0 0 -1.723-1.722z" fill="#ffd7e5"/><rect x="73px" y="75px" width="39px" height="12px" fill="#fa759e"/><g fill="#3a2c60"><path d="m33.169 66.832a5.241 5.241 0 0 1 -2.813.6 9.9 9.9 0 0 1 -2.836-.379 8.224 8.224 0 0 1 -2.466-1.246 3.373 3.373 0 0 0 -1.748-.565 2.087 2.087 0 0 0 -1.663.836 2.824 2.824 0 0 0 .461 3.94 10.628 10.628 0 0 0 3.69 1.846 16.172 16.172 0 0 0 4.651.658 11.963 11.963 0 0 0 4.7-.875 7.754 7.754 0 0 0 3.33-2.553 6.453 6.453 0 0 0 1.225-3.869 5.509 5.509 0 0 0 -1.1-3.464 7.448 7.448 0 0 0 -2.937-2.177 25.137 25.137 0 0 0 -4.517-1.4 11.073 11.073 0 0 1 -3.26-1.1 1.115 1.115 0 0 1 -.581-1.043 1.644 1.644 0 0 1 .756-1.475 4.646 4.646 0 0 1 2.654-.645 7.138 7.138 0 0 1 2.485.379 9.123 9.123 0 0 1 2.146 1.2c.031.022.062.042.095.061a5.162 5.162 0 0 0 .835.4 2.648 2.648 0 0 0 .891.147 2.082 2.082 0 0 0 1.663-.837 2.672 2.672 0 0 0 .6-1.722 2.7 2.7 0 0 0 -.28-1.26 3.223 3.223 0 0 0 -.8-.945 11.483 11.483 0 0 0 -7.635-2.515 11.419 11.419 0 0 0 -4.618.909 7.941 7.941 0 0 0 -3.335 2.629 6.586 6.586 0 0 0 -1.237 3.911 5.967 5.967 0 0 0 1.027 3.555 7.073 7.073 0 0 0 2.889 2.246 22.669 22.669 0 0 0 4.485 1.386 13.216 13.216 0 0 1 3.374 1.086.925.925 0 0 1 .585.883 1.512 1.512 0 0 1 -.716 1.398zm1.111-4.025a15.276 15.276 0 0 0 -3.923-1.29 20.794 20.794 0 0 1 -4.087-1.253 5.126 5.126 0 0 1 -2.092-1.593 4.022 4.022 0 0 1 -.652-2.388 4.565 4.565 0 0 1 .864-2.748 5.984 5.984 0 0 1 2.51-1.962 9.448 9.448 0 0 1 3.813-.739 9.554 9.554 0 0 1 6.343 2.041 1.323 1.323 0 0 1 .315.346.756.756 0 0 1 .052.333.7.7 0 0 1 -.154.468c-.052.064-.088.087-.106.091a.653.653 0 0 1 -.224-.033 3.082 3.082 0 0 1 -.463-.228 11.074 11.074 0 0 0 -2.576-1.428 9.09 9.09 0 0 0 -3.187-.5 6.552 6.552 0 0 0 -3.8 1 3.649 3.649 0 0 0 -1.613 3.116 3.1 3.1 0 0 0 1.517 2.736 13.028 13.028 0 0 0 3.883 1.36 23.2 23.2 0 0 1 4.151 1.274 5.5 5.5 0 0 1 2.164 1.572 3.52 3.52 0 0 1 .674 2.239 4.425 4.425 0 0 1 -.843 2.7 5.789 5.789 0 0 1 -2.492 1.887 10.017 10.017 0 0 1 -3.915.716 14.181 14.181 0 0 1 -4.077-.574 8.724 8.724 0 0 1 -3.037-1.51.687.687 0 0 1 -.284-.636.7.7 0 0 1 .154-.468c.052-.064.088-.088.106-.092a1.365 1.365 0 0 1 .645.231 9.994 9.994 0 0 0 3 1.5 11.93 11.93 0 0 0 3.407.462 7.033 7.033 0 0 0 3.908-.928 3.506 3.506 0 0 0 1.622-3.072 2.9 2.9 0 0 0 -1.603-2.63z"/><path d="m61.185 67.284a13.491 13.491 0 0 0 1.55-6.62 13.656 13.656 0 0 0 -1.335-6.194 9.879 9.879 0 0 0 -3.883-4.18 12.456 12.456 0 0 0 -11.688 0 9.877 9.877 0 0 0 -3.885 4.18 15.062 15.062 0 0 0 0 12.4 9.842 9.842 0 0 0 3.886 4.2 11.476 11.476 0 0 0 5.859 1.456 3.093 3.093 0 0 1 1.311.225 1.632 1.632 0 0 1 .681.643l1.762 2.895a2.976 2.976 0 0 0 1.173 1.144 3.154 3.154 0 0 0 1.49.371 2.945 2.945 0 0 0 1.888-.656 2.377 2.377 0 0 0 .911-1.9 3.006 3.006 0 0 0 -.476-1.571l-.006-.01-1.04-1.667a6.165 6.165 0 0 0 -1.157-1.428 9.549 9.549 0 0 0 2.959-3.288zm-5.345 2.335a1 1 0 0 0 .077 1.859 3.358 3.358 0 0 1 1.76 1.566l1.047 1.674a1.059 1.059 0 0 1 .181.526.384.384 0 0 1 -.165.345 1.079 1.079 0 0 1 -1.185.077 1.011 1.011 0 0 1 -.4-.4l-1.771-2.91a3.619 3.619 0 0 0 -1.51-1.4 4.924 4.924 0 0 0 -2.193-.431 9.518 9.518 0 0 1 -4.852-1.184 7.772 7.772 0 0 1 -3.1-3.363 13.089 13.089 0 0 1 0-10.609 7.8 7.8 0 0 1 3.106-3.35 10.466 10.466 0 0 1 9.673 0 7.8 7.8 0 0 1 3.105 3.349 11.7 11.7 0 0 1 1.123 5.3 11.547 11.547 0 0 1 -1.3 5.65 7.429 7.429 0 0 1 -3.596 3.301z"/><path d="m51.686 51.924a6.568 6.568 0 0 0 -5.349 2.361 9.848 9.848 0 0 0 -1.861 6.379 9.911 9.911 0 0 0 1.859 6.391 6.547 6.547 0 0 0 5.351 2.379 6.516 6.516 0 0 0 5.32-2.378 9.911 9.911 0 0 0 1.859-6.391 9.848 9.848 0 0 0 -1.865-6.38 6.532 6.532 0 0 0 -5.314-2.361zm3.769 13.869a4.548 4.548 0 0 1 -3.769 1.641 4.58 4.58 0 0 1 -3.8-1.641 8.019 8.019 0 0 1 -1.41-5.129 7.954 7.954 0 0 1 1.408-5.111 4.6 4.6 0 0 1 3.8-1.629 4.565 4.565 0 0 1 3.771 1.629 7.954 7.954 0 0 1 1.408 5.111 8.019 8.019 0 0 1 -1.408 5.129z"/><path d="m69.687 49.771a2.935 2.935 0 0 0 -5.051 2.1v17.58a2.75 2.75 0 0 0 .773 2.028 2.8 2.8 0 0 0 2.057.772h10.47a2.6 2.6 0 1 0 0-5.18h-7.43v-15.2a2.9 2.9 0 0 0 -.819-2.1zm8.249 19.3c.8 0 .8.235.8.59s0 .59-.8.59h-10.47c-.456 0-.6-.142-.644-.188a.78.78 0 0 1 -.185-.612v-17.577a.816.816 0 0 1 .92-.92.927.927 0 0 1 .717.231.888.888 0 0 1 .233.689v16.2a1 1 0 0 0 1 1z"/><path d="m11.068 93.4a1 1 0 0 0 1-1v-9.5a1 1 0 0 0 -2 0v9.5a1 1 0 0 0 1 1z"/><path d="m113.931 83.349v-2.325a6.34 6.34 0 0 0 -6.333-6.333h-14.863v-37.86a1 1 0 0 0 -.335-.746l-27.459-27.459a1 1 0 0 0 -.707-.293h-51.166a3 3 0 0 0 -3 3v67.067a1 1 0 0 0 2 0v-67.067a1 1 0 0 1 1-1h50.166v24.5a3 3 0 0 0 3 3h24.5v36.858h-11.834a6.34 6.34 0 0 0 -6.333 6.333v2.325a6.333 6.333 0 0 0 2.944 5.342 6.312 6.312 0 0 0 -2.944 5.325v2.325a6.333 6.333 0 0 0 2.944 5.342 6.312 6.312 0 0 0 -2.944 5.325v2.325a6.3 6.3 0 0 0 1.727 4.333h-61.226a1 1 0 0 1 -1-1v-16.096a1 1 0 0 0 -2 0v16.1a3 3 0 0 0 3 3h94.532a6.34 6.34 0 0 0 6.333-6.333v-2.325a6.315 6.315 0 0 0 -2.944-5.326 6.327 6.327 0 0 0 2.944-5.341v-2.329a6.315 6.315 0 0 0 -2.944-5.326 6.327 6.327 0 0 0 2.942-5.341zm-48.7-48.516v-23.086l24.088 24.086h-23.085a1 1 0 0 1 -1-1zm46.7 72.175v2.325a4.338 4.338 0 0 1 -4.333 4.333h-28.698a4.338 4.338 0 0 1 -4.333-4.333v-2.325a4.338 4.338 0 0 1 4.333-4.333h28.7a4.338 4.338 0 0 1 4.331 4.333zm0-12.992v2.325a4.338 4.338 0 0 1 -4.333 4.334h-28.698a4.338 4.338 0 0 1 -4.333-4.334v-2.325a4.338 4.338 0 0 1 4.333-4.333h28.7a4.338 4.338 0 0 1 4.331 4.333zm0-10.667a4.339 4.339 0 0 1 -4.333 4.334h-28.698a4.339 4.339 0 0 1 -4.333-4.334v-2.325a4.338 4.338 0 0 1 4.333-4.333h28.7a4.338 4.338 0 0 1 4.333 4.333z"/></g><path d="m100.285 80.463a1.723 1.723 0 1 0 1.723 1.723 1.724 1.724 0 0 0 -1.723-1.723z" fill="#ffd7e5"/><path d="m106.443 80.463a1.723 1.723 0 1 0 1.723 1.723 1.723 1.723 0 0 0 -1.723-1.723z" fill="#ffd7e5"/></g><g transform="matrix(0.5681869387626648 0 0 0.5681869387626648 95.81801795959473 237.1717201024294)" id="L1_4"><path d="m10 42.5v11c0 3.314 9.85 6 22 6s22-2.686 22-6v-11z" fill="#ffb300"/><path d="m17 49.95v4.84a11.021 11.021 0 0 1 -4-1.72v-4.32a29.206 29.206 0 0 0 4 1.2z"/><path d="m54 42.5v11c0 3.31-9.85 6-22 6v-17z" fill="#ff8f00"/><path d="m54.8 41.5h-45.6a2.663 2.663 0 0 0 -.2 1v11c0 4.6 11.57 7 23 7s23-2.4 23-7v-11a2.663 2.663 0 0 0 -.2-1zm-1.8 12c0 2.04-8.18 5-21 5s-21-2.96-21-5v-10h42z"/><ellipse cx="32px" cy="42px" rx="22px" ry="6px" fill="#ff8f00"/><path d="m54 42.5c0 3.31-9.85 6-22 6v-12c12.15 0 22 2.69 22 6z" fill="#ff6f00"/><path d="m54.8 41.5c-1.53-3.95-12.23-6-22.8-6s-21.27 2.05-22.8 6a2.663 2.663 0 0 0 -.2 1 3.818 3.818 0 0 0 2 3.04c3.81 2.61 12.44 3.96 21 3.96s17.19-1.35 21-3.96a3.818 3.818 0 0 0 2-3.04 2.663 2.663 0 0 0 -.2-1zm-2.37 2c-2.07 1.89-9.59 4-20.43 4s-18.36-2.11-20.43-4a1.162 1.162 0 0 1 0-2c2.07-1.89 9.59-4 20.43-4s18.36 2.11 20.43 4a1.162 1.162 0 0 1 0 2z"/><path d="m10 26.5v11c0 3.314 9.85 6 22 6s22-2.686 22-6v-11z" fill="#29b6f6"/><path d="m17 33.95v4.84a11.021 11.021 0 0 1 -4-1.72v-4.32a29.206 29.206 0 0 0 4 1.2z"/><path d="m54 26.5v11c0 3.31-9.85 6-22 6v-17z" fill="#0288d1"/><path d="m54.8 25.5h-45.6a2.663 2.663 0 0 0 -.2 1v11c0 4.6 11.57 7 23 7s23-2.4 23-7v-11a2.663 2.663 0 0 0 -.2-1zm-1.8 12c0 2.04-8.18 5-21 5s-21-2.96-21-5v-10h42z"/><ellipse cx="32px" cy="26px" rx="22px" ry="6px" fill="#0288d1"/><path d="m54 26.5c0 3.31-9.85 6-22 6v-12c12.15 0 22 2.69 22 6z" fill="#01579b"/><path d="m54.8 25.5c-1.53-3.95-12.23-6-22.8-6s-21.27 2.05-22.8 6a2.663 2.663 0 0 0 -.2 1 3.818 3.818 0 0 0 2 3.04c3.81 2.61 12.44 3.96 21 3.96s17.19-1.35 21-3.96a3.818 3.818 0 0 0 2-3.04 2.663 2.663 0 0 0 -.2-1zm-2.37 2c-2.07 1.89-9.59 4-20.43 4s-18.36-2.11-20.43-4a1.473 1.473 0 0 1 -.57-1 1.473 1.473 0 0 1 .57-1c2.07-1.89 9.59-4 20.43-4s18.36 2.11 20.43 4a1.473 1.473 0 0 1 .57 1 1.473 1.473 0 0 1 -.57 1z"/><path d="m10 10.5v11c0 3.314 9.85 6 22 6s22-2.686 22-6v-11z" fill="#ffb300"/><path d="m17 17.95v4.84a11.021 11.021 0 0 1 -4-1.72v-4.32a29.206 29.206 0 0 0 4 1.2z"/><path d="m54 10.5v11c0 3.31-9.85 6-22 6v-17z" fill="#ff8f00"/><path d="m54.8 9.5h-45.6a2.624 2.624 0 0 0 -.2 1v11c0 4.6 11.57 7 23 7s23-2.4 23-7v-11a2.663 2.663 0 0 0 -.2-1zm-1.8 12c0 2.04-8.18 5-21 5s-21-2.96-21-5v-10h42z"/><ellipse cx="32px" cy="10px" rx="22px" ry="6px" fill="#ff8f00"/><path d="m54 10.5c0 3.31-9.85 6-22 6v-12c12.15 0 22 2.69 22 6z" fill="#ff6f00"/><path d="m55 10.5a3.818 3.818 0 0 1 -2 3.04c-3.81 2.61-12.44 3.96-21 3.96s-17.19-1.35-21-3.96a3.818 3.818 0 0 1 -2-3.04 2.624 2.624 0 0 1 .2-1c1.29-3.3 8.98-5.12 16.22-5.73a1 1 0 1 1 .16 1.99c-7.88.66-12.42 2.36-13.97 3.74a1.457 1.457 0 0 0 -.61 1 1.473 1.473 0 0 0 .57 1c2.07 1.89 9.59 4 20.43 4s18.36-2.11 20.43-4a1.473 1.473 0 0 0 .57-1 1.473 1.473 0 0 0 -.57-1c-2.07-1.89-9.59-4-20.43-4-.5 0-1 0-1.49.01a1 1 0 1 1 -.03-2c.5-.01 1.01-.01 1.52-.01 10.57 0 21.27 2.05 22.8 6a2.663 2.663 0 0 1 .2 1z"/></g><g transform="matrix(0.08316875249147415 0 0 0.08316875249147415 175.69190610945225 149.70889982496863)" id="L1_8"><path d="M155.968,187.07h38.254c14.29-26.216,38.712-46.094,68.024-54.357  c-5.897-14.318-19.979-24.397-36.419-24.397c-4.11,0-8.069,0.633-11.79,1.798c0.02-0.598,0.046-1.195,0.046-1.798  c0-29.244-23.714-52.956-52.96-52.956c-25.223,0-46.309,17.632-51.642,41.239c-3.168-1.056-6.548-1.634-10.069-1.634  c-10.834,0-20.398,5.424-26.133,13.703c-3.2-0.825-6.56-1.272-10.019-1.272c-22,0-39.834,17.835-39.834,39.836  c0,21.997,17.835,39.836,39.834,39.836h63.687" fill="#9fdef7"/><path d="M373.536,162.958c-20.468-21.893-49.607-35.578-81.941-35.578c-53.408,0-98.066,37.345-109.362,87.34  c-6.704-2.236-13.865-3.466-21.318-3.466c-22.947,0-43.196,11.49-55.341,29.022c-6.779-1.751-13.888-2.692-21.216-2.692  C37.768,237.584,0,275.352,0,321.942c0,46.588,37.768,84.361,84.358,84.361h93.011c0.196-28.675,23.489-51.858,52.206-51.858  c5.446,0,10.697,0.835,15.633,2.382c-0.023-0.79-0.059-1.582-0.059-2.382c0-38.787,31.442-70.23,70.228-70.23  c33.443,0,61.41,23.387,68.483,54.691c4.197-1.401,8.678-2.17,13.346-2.17c14.368,0,27.051,7.194,34.655,18.175  c4.245-1.098,8.696-1.688,13.284-1.688c19.231,0,36.057,10.279,45.295,25.637c13.396-14.793,21.557-34.414,21.557-55.94  c0-46.056-37.332-83.384-83.384-83.384c-8.696,0-17.08,1.333-24.963,3.803c0.041-1.263,0.096-2.529,0.096-3.803  c0-18.832-4.641-36.579-12.845-52.163" fill="#beeafc"/><path d="M89.442,237.74c-1.682-0.102-3.376-0.157-5.084-0.157C37.768,237.582,0,275.351,0,321.941  c0,46.588,37.768,84.361,84.358,84.361h93.011c0.061-8.998,2.4-17.454,6.464-24.823C137.844,346.086,103.961,295.755,89.442,237.74z  " fill="#aee4ff"/><path d="M81.614,174.026c0-27.362,4.208-53.738,11.999-78.528c-8.402,1.551-15.646,6.407-20.333,13.171  c-3.2-0.825-6.56-1.272-10.019-1.272c-22,0-39.834,17.835-39.834,39.836c0,21.997,17.835,39.836,39.834,39.836h18.678  C81.727,182.747,81.614,178.4,81.614,174.026z" fill="#83d4ed"/><path d="M445.146,350.991c-4.588,0-9.041,0.588-13.284,1.688c-7.604-10.982-20.287-18.175-34.655-18.175  c-4.668,0-9.149,0.769-13.346,2.17c-7.074-31.305-35.04-54.691-68.483-54.691c-38.786,0-70.228,31.443-70.228,70.23  c0,0.8,0.035,1.592,0.059,2.382c-4.936-1.547-10.187-2.382-15.633-2.382c-28.835,0-52.212,23.373-52.212,52.216  c0,28.835,23.378,52.21,52.212,52.21h156.329h29.013h30.23c29.175,0,52.827-23.651,52.827-52.824  C497.973,374.64,474.321,350.991,445.146,350.991z" fill="#e4f2f9"/><path d="M285.258,337.525c0-18.847,4-36.758,11.185-52.941c-29.585,8.267-51.295,35.403-51.295,67.627  c0,0.8,0.035,1.592,0.059,2.382c-4.936-1.547-10.187-2.382-15.633-2.382c-28.835,0-52.212,23.373-52.212,52.216  c0,28.835,23.378,52.21,52.212,52.21h132.677C316.86,436.184,285.258,390.545,285.258,337.525z" fill="#d7edf9"/></g><g transform="matrix(0.0954195111989975 0 0 0.0954195111989975 260.57260513305664 147.57336289451132)" id="L1_10"><path d="M506.983,211.064c-1.362-1.075-14.333-10.893-41.71-10.893c-7.238,0-14.405,0.645-21.572,1.863   c-5.303-36.263-35.26-53.965-36.621-54.753l-7.31-4.228l-4.802,6.952c-6.02,9.388-10.463,19.708-13.043,30.53   c-4.873,20.711-1.935,40.133,8.6,56.759c-12.685,7.095-33.11,8.815-37.195,8.958H16c-8.815,0-15.981,7.167-15.981,15.91   c-0.358,29.526,4.587,58.91,14.763,86.644c11.61,30.458,28.881,52.889,51.385,66.649c25.226,15.408,66.148,24.223,112.587,24.223   c20.998,0.072,41.925-1.863,62.493-5.662c28.666-5.232,56.258-15.265,81.556-29.67c20.855-12.111,39.703-27.52,55.685-45.579   c26.731-30.243,42.641-63.926,54.466-93.882c1.577,0,3.153,0,4.73,0c29.24,0,47.228-11.682,57.189-21.5   c6.593-6.235,11.753-13.903,15.05-22.36l2.078-6.163L506.983,211.064z" fill="#2496ed"/><path d="M47.246,236.363h45.221c2.15,0,3.942-1.792,3.942-3.942l0,0v-40.276c0-2.15-1.72-3.942-3.942-3.942   l0,0H47.246c-2.15,0-3.942,1.792-3.942,3.942l0,0v40.276C43.304,234.571,45.096,236.363,47.246,236.363L47.246,236.363" fill="#2496ed"/><path d="M109.524,236.363h45.221c2.15,0,3.942-1.792,3.942-3.942l0,0v-40.276c0-2.15-1.72-3.942-3.942-3.942   l0,0h-45.221c-2.222,0-3.942,1.792-3.942,3.942v40.276C105.582,234.571,107.374,236.363,109.524,236.363" fill="#2496ed"/><path d="M172.805,236.363h45.221c2.15,0,3.942-1.792,3.942-3.942l0,0v-40.276c0-2.15-1.72-3.942-3.942-3.942   l0,0h-45.221c-2.15,0-3.942,1.792-3.942,3.942l0,0v40.276C168.863,234.571,170.583,236.363,172.805,236.363L172.805,236.363" fill="#2496ed"/><path d="M235.298,236.363h45.221c2.15,0,3.942-1.792,3.942-3.942v-40.276c0-2.222-1.792-3.942-3.942-3.942   l0,0h-45.221c-2.15,0-3.942,1.792-3.942,3.942l0,0v40.276C231.356,234.571,233.076,236.363,235.298,236.363L235.298,236.363" fill="#2496ed"/><path d="M109.524,178.456h45.221c2.15,0,3.942-1.792,3.942-3.942v-40.276c0-2.15-1.792-3.942-3.942-3.942   l0,0h-45.221c-2.15,0-3.942,1.792-3.942,3.942v40.276C105.582,176.665,107.374,178.456,109.524,178.456" fill="#2496ed"/><path d="M172.805,178.456h45.221c2.15,0,3.942-1.792,3.942-3.942v-40.276c0-2.15-1.792-3.942-3.942-3.942   l0,0h-45.221c-2.15,0-3.942,1.792-3.942,3.942l0,0v40.276C168.863,176.665,170.583,178.456,172.805,178.456" fill="#2496ed"/><path d="M235.298,178.456h45.221c2.222,0,3.942-1.792,3.942-3.942v-40.276c0-2.15-1.792-3.942-3.942-3.942   h-45.221c-2.15,0-3.942,1.792-3.942,3.942l0,0v40.276C231.356,176.665,233.076,178.456,235.298,178.456" fill="#2496ed"/><path d="M235.298,120.479h45.221c2.15,0,3.942-1.792,3.942-3.942V76.261c0-2.15-1.792-3.942-3.942-3.942   h-45.221c-2.15,0-3.942,1.792-3.942,3.942l0,0v40.276C231.356,118.759,233.076,120.479,235.298,120.479" fill="#2496ed"/><path d="M298.292,236.363h45.221c2.15,0,3.942-1.792,3.942-3.942v-40.276c0-2.222-1.792-3.942-3.942-3.942   l0,0h-45.221c-2.15,0-3.942,1.792-3.942,3.942l0,0v40.276C294.35,234.571,296.142,236.363,298.292,236.363" fill="#2496ed"/></g><g transform="matrix(0.061408963054418564 0 0 0.061408963054418564 179.22352692112327 65.25141618959606)" id="L1_12"><rect x="0px" y="0px" width="242px" height="243px" fill="#f25022"/><rect x="269px" y="0px" width="241px" height="243px" fill="#7fba00"/><rect x="0px" y="268px" width="242px" height="243px" fill="#00a4ef"/><rect x="269px" y="268px" width="241px" height="243px" fill="#ffb900"/></g><g transform="matrix(0.08624205738306046 0 0 0.08624205738306046 91.91885264341954 61.92191696166992)" id="L1_108"><g><path d="M259.345,110.181c-0.076-0.789-0.112-1.578-0.112-2.369c0-11.578,7.584-20.997,16.903-20.997   c9.537,0,17.007,9.223,17.007,20.997c0,2.666-0.401,5.236-1.148,7.61c2.795-4.442,4.412-10.032,4.412-15.892   c0-14.079-9-25.535-20.06-25.535c-11.063,0-20.06,11.455-20.06,25.535c0,3.461,0.542,6.849,1.615,10.099   C258.369,109.807,258.851,109.992,259.345,110.181z" fill="#ffffff"/><path d="M209.407,87.924c0.604-0.092,1.157-0.134,1.707-0.134c7.418,0,14.069,7.281,15.812,17.311   c0.175,1.1,0.285,2.196,0.334,3.277c0.482-0.245,0.972-0.475,1.471-0.688c0.245-1.739,0.364-3.369,0.364-5.006   c0-12.986-6.879-23.957-15.019-23.957c-6.933,0-12.775,7.636-14.44,17.95C201.532,91.973,204.993,88.657,209.407,87.924z" fill="#ffffff"/><path d="M349.093,349.859c1.865-7.908,5.575-28.1,2.063-52.525c-4.438-30.87-47.875-126.994-55.35-137.727   c-4.36,0.609-15.946,7.304-25.342,12.733c-10.896,6.295-22.166,12.807-29.829,15.019c-1.6,0.453-3.273,0.677-4.997,0.677   c-11.199,0-23.32-9.468-31.135-16.926c-1.365,14.472-9.078,32.835-17.423,42.273c-5.271,6.045-9.982,19.854-14.538,33.21   c-4.22,12.367-8.583,25.157-13.925,33.592c-10.809,16.842-17.009,49.555-9.144,68.159c3.806,9.018,17.62,19.668,29.807,29.062   c14.905,11.491,27.776,21.413,29.196,31.419c1.657,11.831-4.635,18.388-10.927,21.497l15.961,18.263   c2.466,0.374,8.405,1.091,17.712,1.091c10.886,0,22.97-0.952,35.907-2.834c31.763-4.705,53.886-30.88,58.261-36.438   c0.023-7.363,0.248-40.123,2.396-50.366c0.834-3.945,4.037-10.547,16.136-10.547C345.803,349.488,347.594,349.653,349.093,349.859z   " fill="#ffffff"/></g><g><path d="M210.488,147.081c0.623,2.422,6.136,8.617,14.71,14.242c1.217,0.781,2.359,1.558,3.431,2.286   c4.756,3.232,6.871,4.559,10.29,4.098c5.034-0.66,23.579-11.904,31.499-16.706l1.971-1.194c2.949-1.796,5.306-3.023,7.2-4.009   c3.75-1.951,4.089-2.266,4.249-2.978c-0.425-1.103-3.926-4.056-10.641-6.364c-2.134-0.764-5.162-1.974-8.67-3.374   c-7.589-3.03-17.984-7.176-22.197-7.922c-0.18-0.034-0.349-0.045-0.539-0.045c-3.586,0-10.831,4.499-18.031,11.194   C220.211,139.513,213.283,144.92,210.488,147.081z" fill="#e69629"/><path d="M147.149,395.532c-3.119-5.222-5.815-9.735-7.27-11.984c-5.738-8.931-15.696-18.907-20.442-18.907   c-0.416,0-0.635,0.097-0.777,0.181c-2.533,1.442-4.662,5.837-6.723,10.084c-2.847,5.875-6.075,12.535-12.036,16.146   c-4.41,2.676-11.152,4.138-17.668,5.555c-4.637,1.007-15.493,3.362-16.003,5.562c-0.703,2.968-0.049,6.033,0.781,9.913   c0.977,4.578,2.196,10.274,1.158,17.267c-0.732,4.386-2.063,8.575-3.354,12.627c-1.793,5.637-3.826,12.03-2.073,13.995   c2.162,1.909,15.207,4.019,24.731,5.562c11.972,1.937,24.351,3.942,31.932,7.118l2.009,0.846   c13.579,5.706,38.854,16.329,51.622,16.329c1.162,0,2.152-0.094,2.951-0.274c2.202-1.482,11.531-8.184,13.284-16.424   c2.394-10.619-7.338-23.005-13.349-29.444C169.25,432.519,156.477,411.14,147.149,395.532z" fill="#e69629"/><path d="M435.761,420.974l-1.556-0.819c-10.688-5.65-16.307-20.984-15.563-32.542   c0.139-2.129-0.126-3.78-0.557-5.045c-1.974,3.247-4.793,7.348-8.143,10.697c-5.691,5.692-19.584,11.833-32.105,11.833   c-4.67,0-8.927-0.823-12.652-2.448c-12.498-5.451-14.202-21.081-14.234-28.917c-0.185,0.052-0.354,0.112-0.505,0.183   c-0.764,2.701-0.024,11.806,0.475,17.935c0.267,3.279,0.542,6.669,0.705,9.78c0.708,13.708-3.658,36.958-7.447,54.049   c-3.597,16.732,3.097,28.464,11.224,30.997c0.73,0.232,1.551,0.346,2.453,0.346c7.487,0,19.886-7.749,30.848-19.285   c7.788-8.189,25.122-17.04,40.416-24.85c8.622-4.402,17.537-8.956,20.071-11.271c0.564-0.525,0.648-0.819,0.65-0.821   C449.681,428.282,439.568,422.972,435.761,420.974z" fill="#e69629"/></g><path d="M461.071,411.093c-15.014-6.147-21.437-14.308-20.816-26.485c0.64-14.212-7.423-24.62-11.252-28.733  c2.313-8.837,9.073-39.406,0.007-65.959c-9.743-28.42-39.49-71.825-70.183-114.492c-12.565-17.522-13.159-36.57-13.846-58.625  c-0.658-21.036-1.4-44.88-13.131-71.387C319.095,16.55,293.501,0,261.628,0c-18.961,0-38.424,5.926-53.401,16.257  c-30.67,21.167-26.616,67.316-23.933,97.851c0.368,4.182,0.713,8.132,0.915,11.504c1.786,29.908,0.161,45.672-1.964,50.463  c-1.375,3.131-8.143,12.041-15.306,21.476c-7.408,9.758-15.807,20.816-22.691,31.121c-8.214,12.401-14.845,31.355-21.257,49.684  c-4.692,13.411-9.124,26.08-13.438,33.655c-8.177,14.564-6.142,28.145-4.444,34.422c-3.096,2.15-7.568,6.386-11.343,14.366  c-4.563,9.736-13.821,14.967-33.072,18.669c-8.847,1.81-14.947,5.53-18.137,11.056c-4.642,8.043-2.113,18.148,0.193,25.056  c3.408,10.151,1.284,16.577-2.577,28.246c-0.89,2.691-1.899,5.741-2.921,9.102c-1.61,5.308-1.029,10.131,1.722,14.341  c7.27,11.113,28.486,15.033,50.326,17.613c13.04,1.548,27.312,6.763,41.116,11.808c13.525,4.942,27.511,10.054,40.223,11.605  c1.932,0.243,3.846,0.364,5.691,0.364c19.194,0,27.866-12.735,30.616-17.967c6.894-1.407,30.673-5.912,55.181-6.518  c24.469-0.697,48.143,4.135,54.85,5.635c2.108,4.036,7.667,13.253,16.527,18.004c4.87,2.662,11.647,4.188,18.588,4.188  c0.002,0,0,0,0.002,0c7.413,0,21.516-1.753,32.678-13.497c11.133-11.796,38.949-26.859,59.261-37.856  c4.533-2.454,8.773-4.751,12.491-6.822c11.41-6.325,17.636-15.362,17.081-24.794C474.141,421.194,468.955,414.322,461.071,411.093z   M276.345,73.995c11.061,0,20.06,11.455,20.06,25.535c0,5.859-1.617,11.449-4.412,15.892c0.745-2.374,1.148-4.944,1.148-7.61  c0-11.774-7.47-20.997-17.007-20.997c-9.32,0-16.903,9.419-16.903,20.997c0,0.791,0.039,1.58,0.112,2.369  c-0.494-0.188-0.975-0.374-1.445-0.552c-1.073-3.25-1.615-6.638-1.615-10.099C256.284,85.451,265.282,73.995,276.345,73.995z   M242.329,125.164c4.214,0.744,14.606,4.892,22.197,7.922c3.508,1.4,6.539,2.61,8.67,3.374c6.715,2.308,10.217,5.261,10.641,6.364  c-0.159,0.713-0.499,1.027-4.249,2.978c-1.894,0.985-4.25,2.211-7.2,4.009l-1.971,1.194c-7.92,4.803-26.465,16.048-31.499,16.706  c-3.42,0.46-5.535-0.868-10.29-4.098c-1.073-0.73-2.214-1.506-3.431-2.286c-8.573-5.627-14.088-11.82-14.71-14.242  c2.795-2.16,9.723-7.568,13.27-10.771c7.2-6.695,14.445-11.194,18.031-11.194C241.978,125.117,242.15,125.13,242.329,125.164z   M214.073,78.724c8.142,0,15.019,10.97,15.019,23.957c0,1.638-0.118,3.267-0.364,5.006c-0.499,0.213-0.989,0.445-1.471,0.688  c-0.049-1.083-0.161-2.177-0.334-3.277c-1.742-10.03-8.394-17.311-15.812-17.311c-0.549,0-1.101,0.042-1.707,0.134  c-4.413,0.735-7.875,4.049-9.772,8.751C201.299,86.359,207.142,78.724,214.073,78.724z M189.271,469.128  c-1.753,8.241-11.083,14.942-13.284,16.424c-0.799,0.18-1.788,0.274-2.951,0.274c-12.768,0-38.043-10.623-51.622-16.329  l-2.009-0.846c-7.583-3.178-19.961-5.18-31.932-7.118c-9.525-1.543-22.568-3.653-24.731-5.562c-1.753-1.966,0.28-8.358,2.073-13.995  c1.291-4.052,2.624-8.241,3.354-12.627c1.036-6.993-0.181-12.691-1.158-17.267c-0.829-3.881-1.484-6.945-0.781-9.913  c0.51-2.199,11.366-4.554,16.003-5.562c6.518-1.417,13.26-2.879,17.668-5.555c5.961-3.611,9.189-10.27,12.036-16.146  c2.061-4.247,4.19-8.642,6.723-10.084c0.143-0.086,0.361-0.181,0.777-0.181c4.746,0,14.704,9.975,20.442,18.907  c1.455,2.249,4.151,6.76,7.27,11.984c9.329,15.609,22.102,36.987,28.773,44.151C181.933,446.123,191.664,458.508,189.271,469.128z   M327.787,360.037c-2.145,10.243-2.372,43.003-2.396,50.366c-4.375,5.558-26.498,31.732-58.261,36.438  c-12.938,1.88-25.019,2.834-35.907,2.834c-9.307,0-15.246-0.719-17.712-1.091l-15.961-18.263  c6.292-3.109,12.584-9.666,10.927-21.497c-1.42-10.005-14.291-19.928-29.196-31.419c-12.187-9.394-26.001-20.042-29.807-29.062  c-7.865-18.602-1.665-51.315,9.144-68.159c5.342-8.434,9.705-21.225,13.925-33.592c4.556-13.356,9.268-27.166,14.538-33.21  c8.345-9.438,16.057-27.801,17.423-42.273c7.814,7.458,19.936,16.926,31.135,16.926c1.724,0,3.398-0.225,4.997-0.677  c7.662-2.213,18.931-8.724,29.829-15.019c9.396-5.429,20.982-12.124,25.342-12.733c7.475,10.734,50.912,106.858,55.35,137.727  c3.512,24.425-0.198,44.616-2.063,52.525c-1.501-0.206-3.29-0.371-5.17-0.371C331.824,349.488,328.621,356.092,327.787,360.037z   M449.194,431.621c-2.533,2.315-11.449,6.869-20.071,11.271c-15.295,7.808-32.631,16.661-40.416,24.85  c-10.962,11.536-23.361,19.285-30.848,19.285c-0.901,0-1.722-0.114-2.453-0.346c-8.128-2.533-14.821-14.266-11.224-30.997  c3.789-17.093,8.153-40.341,7.447-54.049c-0.163-3.112-0.438-6.502-0.705-9.78c-0.499-6.127-1.239-15.233-0.475-17.935  c0.151-0.071,0.319-0.131,0.505-0.183c0.032,7.836,1.734,23.467,14.234,28.917c3.725,1.625,7.982,2.448,12.652,2.448  c12.521,0,26.414-6.141,32.105-11.833c3.351-3.349,6.169-7.45,8.143-10.697c0.431,1.264,0.697,2.916,0.557,5.044  c-0.744,11.558,4.873,26.891,15.563,32.542l1.556,0.819c3.807,1.996,13.92,7.307,14.083,9.824  C449.842,430.801,449.758,431.097,449.194,431.621z"/></g><g transform="matrix(0.0731620267033577 0 0 0.0731620267033577 10.27052116394043 326.27052116394043)" id="L1_111"><path d="m504.5 151h-497v-42c0-16.569 13.431-30 30-30h437c16.569 0 30 13.431 30 30z" fill="#43809f"/><path d="m474.5 79v72h30v-42c0-16.569-13.431-30-30-30z" fill="#3a7190"/><path d="m474.5 433h-437c-16.569 0-30-13.431-30-30v-252h497v252c0 16.569-13.431 30-30 30z" fill="#a9dbf5"/><path d="m474.5 151v282c16.569 0 30-13.431 30-30v-252z" fill="#88c3e0"/><circle cx="55" cy="115" r="15" fill="#29cef6"/><circle cx="113" cy="115" r="15" fill="#f3f3f3"/><circle cx="171" cy="115" r="15" fill="#f78e36"/><path d="m382.5 234.868h-47c-8.284 0-15-6.716-15-15 0-8.284 6.716-15 15-15h47c8.284 0 15 6.716 15 15 0 8.284-6.716 15-15 15z" fill="#29cef6"/><path d="m459.5 294.868h-124c-8.284 0-15-6.716-15-15 0-8.284 6.716-15 15-15h124c8.284 0 15 6.716 15 15 0 8.284-6.716 15-15 15z" fill="#ffc328"/><path d="m422.665 354.868h-87.165c-8.284 0-15-6.716-15-15 0-8.284 6.716-15 15-15h87.165c8.284 0 15 6.716 15 15 0 8.284-6.716 15-15 15z" fill="#f78e36"/><g><path d="m474.5 71.5h-26.261c-4.143 0-7.5 3.357-7.5 7.5s3.357 7.5 7.5 7.5h26.261c12.406 0 22.5 10.094 22.5 22.5v34.5h-482v-34.5c0-12.406 10.093-22.5 22.5-22.5h377.809c4.143 0 7.5-3.357 7.5-7.5s-3.357-7.5-7.5-7.5h-377.809c-20.678 0-37.5 16.822-37.5 37.5v82.681c0 4.143 3.358 7.5 7.5 7.5s7.5-3.357 7.5-7.5v-33.181h482v193.366c0 4.143 3.357 7.5 7.5 7.5s7.5-3.357 7.5-7.5v-242.866c0-20.678-16.822-37.5-37.5-37.5z"/><path d="m504.5 375.994c-4.143 0-7.5 3.357-7.5 7.5v19.506c0 12.406-10.094 22.5-22.5 22.5h-437c-12.407 0-22.5-10.094-22.5-22.5v-179.133c0-4.143-3.358-7.5-7.5-7.5s-7.5 3.357-7.5 7.5v179.133c0 20.678 16.822 37.5 37.5 37.5h437c20.678 0 37.5-16.822 37.5-37.5v-19.506c0-4.142-3.357-7.5-7.5-7.5z"/><path d="m108.482 234.457c-2.929-2.928-7.678-2.928-10.606 0l-45.07 45.07c-1.407 1.407-2.197 3.314-2.197 5.304s.79 3.896 2.197 5.304l44.474 44.474c1.464 1.464 3.384 2.196 5.303 2.196s3.839-.732 5.303-2.196c2.929-2.93 2.929-7.678 0-10.607l-39.171-39.17 39.767-39.767c2.93-2.93 2.93-7.678 0-10.608z"/><path d="m209.344 334.608c1.464 1.464 3.384 2.196 5.303 2.196s3.839-.732 5.303-2.196l44.475-44.474c1.406-1.407 2.196-3.314 2.196-5.304s-.79-3.896-2.196-5.304l-45.071-45.07c-2.929-2.928-7.678-2.928-10.606 0-2.929 2.93-2.929 7.678 0 10.607l39.768 39.767-39.171 39.17c-2.93 2.931-2.93 7.679-.001 10.608z"/><path d="m131.99 362.234c3.025 0 5.876-1.844 7.013-4.841l53.294-140.398c1.47-3.873-.478-8.204-4.35-9.674-3.872-1.471-8.204.478-9.673 4.35l-53.294 140.4c-1.47 3.872.478 8.203 4.35 9.673.876.333 1.775.49 2.66.49z"/><path d="m33.006 115.371c0 12.406 10.093 22.5 22.5 22.5s22.5-10.094 22.5-22.5-10.093-22.5-22.5-22.5-22.5 10.094-22.5 22.5zm30 0c0 4.136-3.364 7.5-7.5 7.5s-7.5-3.364-7.5-7.5 3.364-7.5 7.5-7.5 7.5 3.364 7.5 7.5z"/><path d="m91.166 115.371c0 12.406 10.093 22.5 22.5 22.5s22.5-10.094 22.5-22.5-10.093-22.5-22.5-22.5-22.5 10.094-22.5 22.5zm30 0c0 4.136-3.364 7.5-7.5 7.5s-7.5-3.364-7.5-7.5 3.364-7.5 7.5-7.5 7.5 3.364 7.5 7.5z"/><path d="m149.325 115.371c0 12.406 10.093 22.5 22.5 22.5s22.5-10.094 22.5-22.5-10.093-22.5-22.5-22.5-22.5 10.094-22.5 22.5zm30 0c0 4.136-3.364 7.5-7.5 7.5s-7.5-3.364-7.5-7.5 3.364-7.5 7.5-7.5 7.5 3.364 7.5 7.5z"/><path d="m335.5 242.368h47c12.406 0 22.5-10.094 22.5-22.5s-10.094-22.5-22.5-22.5h-47c-12.406 0-22.5 10.094-22.5 22.5s10.094 22.5 22.5 22.5zm0-30h47c4.136 0 7.5 3.364 7.5 7.5s-3.364 7.5-7.5 7.5h-47c-4.136 0-7.5-3.364-7.5-7.5s3.364-7.5 7.5-7.5z"/><path d="m335.5 302.368h124c12.406 0 22.5-10.094 22.5-22.5s-10.094-22.5-22.5-22.5h-124c-12.406 0-22.5 10.094-22.5 22.5s10.094 22.5 22.5 22.5zm0-30h124c4.136 0 7.5 3.364 7.5 7.5s-3.364 7.5-7.5 7.5h-124c-4.136 0-7.5-3.364-7.5-7.5s3.364-7.5 7.5-7.5z"/><path d="m335.5 362.368h87.165c12.406 0 22.5-10.094 22.5-22.5s-10.094-22.5-22.5-22.5h-87.165c-12.406 0-22.5 10.094-22.5 22.5s10.094 22.5 22.5 22.5zm0-30h87.165c4.136 0 7.5 3.364 7.5 7.5s-3.364 7.5-7.5 7.5h-87.165c-4.136 0-7.5-3.364-7.5-7.5s3.364-7.5 7.5-7.5z"/></g></g><path d="m68.979 319.646c-7.716 0-13.994 6.28-13.994 13.998v17.079c0 7.75 6.278 14.054 13.994 14.054h16.315c1.105 5.911 2.678 11.817 4.705 17.627l-14.109 8.136c-6.621 3.823-9.053 12.349-5.144 19.128l8.546 14.84c3.836 6.632 12.401 8.944 19.133 5.132l14.162-8.186c3.962 4.608 8.275 8.924 12.884 12.884l-8.198 14.187c-3.798 6.7-1.491 15.272 5.149 19.108l14.828 8.538c6.678 3.863 15.267 1.561 19.133-5.137l8.136-14.112c5.8 2.024 11.706 3.602 17.632 4.707v16.312c0 7.718 6.302 13.998 14.051 13.998h17.077c7.721 0 13.998-6.28 13.998-13.998v-16.307c5.959-1.107 11.866-2.683 17.632-4.707l8.136 14.112c3.964 6.851 12.664 8.923 19.118 5.137l14.92-8.555c6.601-3.863 8.903-12.428 5.115-19.123l-8.193-14.17c4.676-4.032 8.99-8.345 12.884-12.872l14.138 8.198c6.722 3.805 15.311 1.501 19.166-5.153l8.531-14.826c3.875-6.707 1.576-15.258-5.134-19.137l-14.162-8.136c2.065-5.894 3.662-11.8 4.758-17.625h16.261c7.75 0 14.051-6.304 14.051-14.054v-17.079c0-7.718-6.302-13.998-14.051-13.998h-16.257c-1.115-6.003-2.702-11.911-4.743-17.634l14.148-8.131c6.793-3.921 8.956-12.59 5.134-19.12l-8.551-14.913c-3.865-6.62-12.454-8.927-19.181-5.115l-14.119 8.184c-3.962-4.584-8.275-8.898-12.869-12.869l8.203-14.15c3.788-6.69 1.486-15.282-5.158-19.161l-14.891-8.541c-6.683-3.843-15.263-1.532-19.123 5.146l-8.126 14.138c-5.723-2.039-11.629-3.626-17.637-4.743v-16.254c0-7.747-6.278-14.051-13.998-14.051h-17.077c-7.75 0-14.051 6.304-14.051 14.051v16.259c-5.974 1.115-11.88 2.705-17.632 4.743l-8.136-14.153c-3.831-6.628-12.396-8.944-19.128-5.134l-14.838 8.543c-6.649 3.839-8.956 12.433-5.125 19.188l8.174 14.107c-4.628 3.976-8.946 8.29-12.879 12.876l-14.187-8.196c-6.683-3.783-15.238-1.479-19.113 5.158l-8.526 14.862c-3.874 6.639-1.604 15.255 5.129 19.147l14.104 8.133c-2.027 5.781-3.6 11.687-4.705 17.629h-16.31zm23.099 4.28c1.177-7.513 3.175-14.997 5.93-22.247.647-1.701-.039-3.619-1.612-4.529l-16.802-9.689c-3.117-1.795-4.269-5.84-2.422-9.014l8.526-14.86c1.829-3.129 5.882-4.227 9.019-2.439l16.86 9.742c1.568.905 3.58.545 4.729-.873 4.806-5.916 10.278-11.388 16.271-16.266 1.414-1.148 1.781-3.156.864-4.731l-9.723-16.778c-1.814-3.197-.733-7.272 2.398-9.081l14.814-8.529c3.165-1.795 7.224-.717 9.028 2.401l9.689 16.86c.917 1.585 2.847 2.275 4.545 1.612 7.195-2.77 14.679-4.784 22.24-5.983 1.8-.285 3.127-1.838 3.127-3.66v-19.379c0-3.723 2.915-6.64 6.64-6.64h17.077c3.633 0 6.587 2.98 6.587 6.64v19.379c0 1.824 1.327 3.378 3.132 3.66 7.614 1.202 15.094 3.214 22.226 5.981 1.703.649 3.638-.022 4.555-1.609l9.684-16.85c1.81-3.146 5.844-4.234 9.014-2.42l14.867 8.526c3.136 1.834 4.222 5.913 2.442 9.062l-9.747 16.807c-.912 1.573-.55 3.571.854 4.724 5.945 4.883 11.426 10.365 16.29 16.29 1.163 1.411 3.17 1.766 4.724.857l16.778-9.725c3.175-1.793 7.257-.719 9.081 2.398l8.551 14.913c1.816 3.1.719 7.176-2.422 8.985l-16.86 9.689c-1.588.912-2.268 2.847-1.607 4.555 2.77 7.132 4.782 14.611 5.979 22.226.285 1.802 1.838 3.129 3.662 3.129h19.379c3.662 0 6.64 2.956 6.64 6.587v17.079c0 3.725-2.915 6.642-6.64 6.642h-19.379c-1.824 0-3.373 1.325-3.662 3.124-1.158 7.31-3.175 14.799-5.993 22.264-.642 1.701.048 3.614 1.621 4.521l16.855 9.684c3.159 1.83 4.243 5.859 2.413 9.011l-8.531 14.826c-1.814 3.141-5.887 4.215-9.057 2.427l-16.807-9.745c-1.563-.917-3.58-.55-4.734.869-4.729 5.815-10.206 11.291-16.281 16.281-1.404 1.151-1.766 3.149-.859 4.719l9.733 16.831c1.785 3.158.7 7.216-2.398 9.028l-14.92 8.555c-3.078 1.805-7.149.734-8.985-2.43l-9.689-16.807c-.912-1.578-2.847-2.268-4.526-1.612-7.224 2.748-14.708 4.746-22.25 5.935-1.805.282-3.132 1.836-3.132 3.66v19.432c0 3.631-2.953 6.587-6.587 6.587h-17.077c-3.662 0-6.64-2.956-6.64-6.587v-19.431c0-1.822-1.327-3.375-3.127-3.66-7.489-1.189-14.978-3.187-22.259-5.94-1.693-.637-3.613.034-4.521 1.616l-9.689 16.802c-1.819 3.158-5.858 4.234-9.014 2.422l-14.828-8.538c-3.122-1.805-4.203-5.858-2.417-9.004l9.742-16.86c.912-1.578.54-3.58-.869-4.729-5.95-4.845-11.426-10.319-16.271-16.273-1.153-1.414-3.161-1.768-4.729-.869l-16.836 9.73c-3.165 1.797-7.228.714-9.028-2.403l-8.546-14.838c-1.808-3.135-.751-7.175 2.427-9.004l16.802-9.689c1.573-.907 2.253-2.82 1.616-4.519-2.76-7.31-4.758-14.799-5.935-22.262-.285-1.8-1.838-3.127-3.662-3.127h-19.437c-3.629 0-6.582-2.98-6.582-6.642v-17.079c0-3.631 2.953-6.587 6.582-6.587h19.437c1.824.001 3.377-1.328 3.662-3.131zm269.882-133.309c18.298 0 33.184-14.886 33.184-33.184 0-18.3-14.886-33.186-33.184-33.186s-33.184 14.886-33.184 33.186c0 18.297 14.886 33.184 33.184 33.184zm0-58.959c14.211 0 25.772 11.562 25.772 25.775 0 14.211-11.562 25.772-25.772 25.772-14.211 0-25.772-11.562-25.772-25.772 0-14.213 11.561-25.775 25.772-25.775zm-65.828-30.144c-4.83-2.743-11.021-1.069-13.844 3.742l-5.322 9.284c-2.813 4.809-1.179 11.066 3.711 13.885l7.832 4.514c-.989 2.963-1.79 5.974-2.403 9.009h-9.057c-5.593 0-10.143 4.55-10.143 10.143v10.683c0 5.612 4.55 10.177 10.143 10.177h9.057c.613 3.021 1.419 6.032 2.408 9.004l-7.841 4.521c-4.871 2.81-6.517 9.027-3.72 13.856l5.346 9.289c2.784 4.806 8.999 6.483 13.858 3.713l7.87-4.548c2.056 2.323 4.256 4.524 6.577 6.579l-4.56 7.894c-2.75 4.849-1.076 11.057 3.735 13.839l9.274 5.339c4.86 2.804 11.057 1.143 13.863-3.72l4.521-7.839c2.972.989 5.983 1.793 9.004 2.405v9.06c0 5.593 4.565 10.143 10.177 10.143h10.683c5.593 0 10.143-4.55 10.143-10.143v-9.055c3.04-.613 6.051-1.416 9.009-2.405l4.517 7.839c2.842 4.918 9.125 6.49 13.854 3.72l9.337-5.356c4.792-2.794 6.456-8.997 3.706-13.854l-4.555-7.875c2.345-2.082 4.545-4.28 6.577-6.57l7.865 4.56c4.874 2.758 11.089 1.088 13.878-3.737l5.337-9.272c2.787-4.831 1.176-11.036-3.725-13.868l-7.86-4.519c1.004-3.001 1.814-6.01 2.427-9.002h9.033c5.607 0 10.172-4.565 10.172-10.177v-10.683c0-5.593-4.565-10.143-10.172-10.143h-9.023c-.622-3.062-1.428-6.075-2.422-9.014l7.851-4.512c4.931-2.849 6.487-9.132 3.725-13.854l-5.356-9.339c-2.804-4.796-9.023-6.461-13.892-3.699l-7.841 4.548c-2.06-2.314-4.256-4.509-6.572-6.567l4.57-7.875c2.746-4.845 1.076-11.062-3.744-13.875l-9.313-5.344c-4.849-2.784-11.065-1.107-13.858 3.735l-4.507 7.844c-2.939-.992-5.95-1.802-9.014-2.42v-9.023c0-5.612-4.55-10.177-10.143-10.177h-10.683c-5.612 0-10.177 4.565-10.177 10.177v9.026c-3.045.62-6.061 1.431-9.009 2.422l-4.517-7.856c-2.775-4.811-8.985-6.5-13.854-3.723l-9.294 5.344c-4.811 2.784-6.48 9.007-3.706 13.904l4.541 7.829c-2.331 2.063-4.531 4.261-6.577 6.577zm11.596 11.653c2.948-3.629 6.302-6.985 9.974-9.974 1.414-1.151 1.781-3.156.864-4.734l-6.075-10.476c-.758-1.341-.314-3.045.984-3.798l9.265-5.33c1.313-.753 3.006-.306 3.754.987l6.061 10.543c.917 1.583 2.842 2.27 4.545 1.612 4.401-1.694 8.985-2.927 13.632-3.665 1.795-.287 3.122-1.838 3.122-3.66v-12.12c0-1.551 1.216-2.765 2.765-2.765h10.683c1.53 0 2.731 1.214 2.731 2.765v12.121c0 1.824 1.327 3.375 3.127 3.66 4.685.738 9.265 1.971 13.617 3.662 1.694.649 3.634-.022 4.555-1.609l6.056-10.536c.748-1.286 2.471-1.735 3.749-1.004l9.289 5.327c1.288.755 1.752 2.497 1.028 3.776l-6.099 10.51c-.912 1.571-.55 3.571.854 4.724 3.638 2.992 7.006 6.357 10.003 10.001 1.153 1.409 3.17 1.764 4.719.854l10.481-6.078c1.298-.738 3.054-.282 3.793.982l5.356 9.337c.748 1.284.281 2.979-1.013 3.72l-10.543 6.058c-1.588.912-2.268 2.847-1.607 4.555 1.689 4.357 2.924 8.939 3.662 13.62.29 1.8 1.838 3.127 3.662 3.127h12.121c1.549 0 2.76 1.199 2.76 2.731v10.683c0 1.551-1.211 2.765-2.76 2.765h-12.121c-1.819 0-3.373 1.325-3.658 3.122-.719 4.502-1.954 9.096-3.677 13.653-.647 1.701.043 3.617 1.616 4.524l10.539 6.056c1.304.751 1.772 2.425 1.004 3.742l-5.337 9.272c-.753 1.31-2.461 1.752-3.769 1.011l-10.51-6.094c-1.563-.912-3.58-.553-4.734.866-2.91 3.573-6.268 6.934-9.988 9.988-1.404 1.151-1.766 3.149-.859 4.719l6.085 10.519c.748 1.317.294 3.009-.984 3.757l-9.337 5.356c-1.297.745-2.977.276-3.725-1.013l-6.061-10.512c-.907-1.578-2.828-2.275-4.526-1.612-4.425 1.684-9.009 2.907-13.636 3.636-1.805.282-3.132 1.836-3.132 3.66v12.155c0 1.506-1.226 2.731-2.731 2.731h-10.683c-1.549 0-2.765-1.199-2.765-2.731v-12.155c0-1.824-1.327-3.375-3.127-3.66-4.589-.726-9.178-1.952-13.651-3.641-1.65-.628-3.593.007-4.517 1.616l-6.061 10.507c-.734 1.275-2.38 1.784-3.74 1.006l-9.274-5.339c-1.298-.75-1.747-2.437-1.008-3.735l6.094-10.546c.912-1.578.54-3.58-.869-4.729-3.653-2.972-7.011-6.328-9.974-9.976-1.148-1.419-3.165-1.776-4.729-.871l-10.524 6.08c-1.317.758-3.011.302-3.759-.987l-5.346-9.289c-.751-1.307-.304-2.975 1.008-3.73l10.514-6.061c1.573-.907 2.253-2.823 1.612-4.521-1.689-4.476-2.915-9.069-3.638-13.648-.29-1.802-1.838-3.127-3.662-3.127h-12.155c-1.53 0-2.731-1.214-2.731-2.765v-10.683c0-1.506 1.226-2.731 2.731-2.731h12.155c1.824 0 3.378-1.327 3.662-3.129.724-4.615 1.949-9.204 3.638-13.641.647-1.701-.039-3.619-1.617-4.529l-10.51-6.056c-1.251-.72-1.794-2.381-.999-3.749l5.322-9.284c.762-1.303 2.461-1.754 3.749-1.025l10.548 6.094c1.566.906 3.583.542 4.732-.872zm-169.79-30.006c-4.859 0-8.811 3.952-8.811 8.811v8.471c0 4.874 3.952 8.838 8.811 8.838h6.558c.434 2.017.97 4.029 1.612 6.022l-5.679 3.274c-4.234 2.442-5.659 7.829-3.233 12.037l4.237 7.368c2.418 4.172 7.812 5.612 12.044 3.223l5.704-3.296c1.39 1.537 2.857 3.006 4.396 4.398l-3.31 5.728c-2.389 4.21-.931 9.6 3.247 12.015l7.354 4.234c4.193 2.425 9.602.984 12.039-3.231l3.276-5.677c1.988.639 4 1.177 6.017 1.609v6.56c0 4.859 3.966 8.811 8.84 8.811h8.473c4.859 0 8.811-3.952 8.811-8.811v-6.558c2.027-.432 4.039-.967 6.022-1.609l3.272 5.682c2.493 4.292 7.943 5.613 12.03 3.228l7.417-4.251c4.15-2.43 5.597-7.815 3.209-12.032l-3.301-5.706c1.554-1.407 3.021-2.874 4.396-4.389l5.708 3.31c4.208 2.389 9.612.939 12.044-3.25l4.232-7.351c2.432-4.208.984-9.61-3.233-12.049l-5.699-3.272c.651-2.012 1.197-4.024 1.631-6.02h6.538c4.874 0 8.835-3.964 8.835-8.838v-8.471c0-4.859-3.962-8.811-8.835-8.811h-6.534c-.434-2.036-.975-4.048-1.621-6.024l5.694-3.272c4.301-2.49 5.613-7.96 3.228-12.03l-4.251-7.412c-2.427-4.157-7.822-5.597-12.063-3.209l-5.679 3.293c-1.39-1.53-2.857-2.997-4.386-4.386l3.31-5.713c2.384-4.2.936-9.598-3.252-12.049l-7.388-4.234c-4.222-2.415-9.602-.96-12.034 3.243l-3.262 5.679c-1.974-.644-3.986-1.185-6.027-1.619v-6.531c0-4.874-3.952-8.838-8.811-8.838h-8.473c-4.874 0-8.84 3.964-8.84 8.838v6.534c-2.031.434-4.044.977-6.022 1.621l-3.272-5.694c-2.418-4.172-7.803-5.626-12.034-3.228l-7.363 4.237c-4.184 2.417-5.636 7.819-3.223 12.075l3.286 5.67c-1.539 1.392-3.011 2.861-4.396 4.393l-5.728-3.31c-4.184-2.364-9.578-.924-12.02 3.255l-4.217 7.359c-2.425 4.148-1.057 9.586 3.219 12.061l5.675 3.269c-.642 1.986-1.177 3.998-1.607 6.022h-6.561zm14.529-10.908-8.333-4.804c-.641-.374-.922-1.22-.511-1.928l4.217-7.359c.391-.673 1.269-.91 1.93-.533l8.362 4.833c1.563.907 3.58.548 4.729-.873 2.307-2.837 4.927-5.46 7.803-7.798 1.414-1.148 1.781-3.156.864-4.734l-4.816-8.302c-.386-.688-.159-1.59.497-1.969l7.335-4.22c.69-.396 1.559-.164 1.94.492l4.806 8.362c.917 1.585 2.842 2.278 4.545 1.612 3.445-1.325 7.031-2.29 10.65-2.864 1.8-.285 3.127-1.838 3.127-3.66v-9.612c0-.799.627-1.426 1.428-1.426h8.473c.787 0 1.399.627 1.399 1.426v9.612c0 1.824 1.327 3.375 3.127 3.66 3.653.577 7.233 1.539 10.64 2.861 1.699.656 3.633-.022 4.555-1.609l4.801-8.353c.381-.663 1.274-.888 1.925-.511l7.359 4.217c.671.391.907 1.298.54 1.947l-4.835 8.336c-.912 1.571-.55 3.571.854 4.724 2.852 2.345 5.486 4.977 7.827 7.824 1.158 1.409 3.165 1.764 4.719.854l8.3-4.813c.685-.388 1.592-.152 1.969.49l4.251 7.412c.376.647.13 1.524-.521 1.896l-8.362 4.806c-1.583.912-2.268 2.845-1.607 4.553 1.322 3.419 2.287 6.999 2.861 10.642.285 1.8 1.838 3.127 3.662 3.127h9.612c.796 0 1.423.615 1.423 1.399v8.471c0 .799-.627 1.426-1.423 1.426h-9.612c-1.824 0-3.373 1.325-3.658 3.122-.56 3.498-1.53 7.091-2.881 10.683-.637 1.699.048 3.614 1.621 4.519l8.358 4.801c.671.388.902 1.247.511 1.923l-4.232 7.349c-.376.663-1.274.9-1.94.524l-8.333-4.835c-1.568-.917-3.58-.55-4.729.866-2.273 2.787-4.903 5.416-7.822 7.817-1.399 1.151-1.761 3.146-.854 4.717l4.821 8.333c.381.671.14 1.566-.492 1.937l-7.412 4.251c-.665.387-1.523.118-1.901-.524l-4.806-8.338c-.912-1.58-2.842-2.263-4.526-1.614-3.465 1.32-7.05 2.278-10.664 2.847-1.8.285-3.127 1.836-3.127 3.66v9.639c0 .772-.627 1.399-1.399 1.399h-8.473c-.801 0-1.428-.615-1.428-1.399v-9.639c0-1.822-1.327-3.375-3.127-3.66-3.58-.569-7.17-1.527-10.674-2.849-1.701-.64-3.614.043-4.517 1.616l-4.806 8.331c-.386.671-1.24.912-1.92.519l-7.354-4.234c-.666-.384-.888-1.255-.516-1.913l4.835-8.362c.912-1.575.54-3.58-.869-4.729-2.857-2.326-5.482-4.951-7.807-7.805-1.148-1.414-3.156-1.768-4.724-.869l-8.333 4.818c-.7.398-1.573.162-1.945-.495l-4.237-7.366c-.384-.655-.171-1.517.516-1.913l8.333-4.806c1.568-.907 2.253-2.818 1.616-4.517-1.322-3.503-2.278-7.096-2.852-10.683-.285-1.797-1.834-3.122-3.658-3.122h-9.636c-.787 0-1.399-.627-1.399-1.426v-8.471c0-.772.627-1.399 1.399-1.399h9.636c1.824 0 3.378-1.327 3.662-3.127.569-3.607 1.525-7.195 2.842-10.666.65-1.699-.036-3.614-1.609-4.524zm52.809 51.04c14.934 0 27.085-12.15 27.085-27.085s-12.15-27.085-27.085-27.085-27.085 12.15-27.085 27.085 12.15 27.085 27.085 27.085zm0-46.757c10.847 0 19.673 8.826 19.673 19.673s-8.826 19.673-19.673 19.673-19.673-8.826-19.673-19.673 8.826-19.673 19.673-19.673zm-.536 316.487c28.03 0 50.835-22.805 50.835-50.837s-22.805-50.837-50.835-50.837c-28.035 0-50.84 22.805-50.84 50.837s22.805 50.837 50.84 50.837zm0-94.263c23.943 0 43.423 19.48 43.423 43.426s-19.48 43.426-43.423 43.426c-23.948 0-43.428-19.48-43.428-43.426s19.48-43.426 43.428-43.426zm0 116.158c40.103 0 72.732-32.627 72.732-72.732s-32.629-72.735-72.732-72.735c-40.108 0-72.737 32.629-72.737 72.735s32.629 72.732 72.737 72.732zm0-138.056c36.016 0 65.321 29.304 65.321 65.323s-29.304 65.321-65.321 65.321c-36.021 0-65.326-29.302-65.326-65.321s29.305-65.323 65.326-65.323z" transform="matrix(0.09313619151580253 0.06652585101623332 -0.06652585101623332 0.09313619151580253 280.73816757020495 305.5736721146249)" fill="#000000" id="L1_112"/><g transform="matrix(0.05733301118016243 0 0 0.05733301118016243 178.29288111059236 330.32275216423125)" id="L1_113"><path d="M483.573,375.929H90.405c-15.7,0-28.427-12.727-28.427-28.427V92.884  c0-15.7,12.727-28.427,28.427-28.427h393.167c15.7,0,28.427,12.727,28.427,28.427v254.619  C512,363.202,499.273,375.929,483.573,375.929z" fill="#2b84e9"/><rect x="243px" y="373px" width="86px" height="74px" fill="#363c44"/><g><rect x="243px" y="373px" width="86px" height="19px" fill="#292e33"/><rect x="243px" y="431px" width="86px" height="14px" fill="#292e33"/></g><path d="M61.978,347.502c0,15.7,12.727,28.427,28.427,28.427h393.167c15.7,0,28.427-12.727,28.427-28.427  v-59.164H61.978V347.502z" fill="#555e6b"/><circle cx="472" cy="330" r="7" fill="#49bc6e"/><path d="M199.231,64.456H91.394c-15.7,0-28.427,12.727-28.427,28.427v254.618  c0,15.7,12.727,28.427,28.427,28.427H199.23V64.456H199.231z" fill="#2676c6"/><g><circle cx="444" cy="330" r="7" fill="#49bc6e"/><circle cx="417" cy="330" r="7" fill="#49bc6e"/></g><path d="M62.967,288.338v59.164c0,15.7,12.727,28.427,28.427,28.427H199.23v-87.592H62.967V288.338z" fill="#434b56"/><path d="M155.845,476.962H13.115C5.872,476.962,0,471.09,0,463.846V48.152  c0-7.243,5.872-13.115,13.115-13.115h142.729c7.243,0,13.115,5.872,13.115,13.115v415.695  C168.96,471.09,163.088,476.962,155.845,476.962z" fill="#555e6b"/><path d="M364.424,476.962h-154.87c-1.606,0-2.908-1.302-2.908-2.908v-12.408  c0-8.927,7.237-16.164,16.164-16.164h128.358c8.927,0,16.164,7.237,16.164,16.164v12.408  C367.332,475.66,366.03,476.962,364.424,476.962z" fill="#363c44"/><circle cx="286" cy="329" r="15" fill="#ffe92f"/><g><path d="M49.828,392.566l-19.356-96.779c-0.298-1.49-0.949-2.887-1.898-4.073L0,255.999v199.198   l47.663-54.512C49.607,398.462,50.407,395.462,49.828,392.566z" fill="#2e343a"/><path d="M119.132,392.566l19.356-96.779c0.298-1.49,0.949-2.887,1.898-4.073l28.574-35.715v199.198   l-47.663-54.512C119.353,398.462,118.553,395.462,119.132,392.566z" fill="#2e343a"/></g><g><path d="M66.552,454.334H48.199c-4.293,0-7.773-3.48-7.773-7.773s3.48-7.773,7.773-7.773h18.352   c4.293,0,7.773,3.48,7.773,7.773C74.324,450.854,70.845,454.334,66.552,454.334z" fill="#96abbc"/><path d="M114.751,454.334H96.398c-4.293,0-7.773-3.48-7.773-7.773s3.48-7.773,7.773-7.773h18.352   c4.293,0,7.773,3.48,7.773,7.773C122.524,450.854,119.044,454.334,114.751,454.334z" fill="#96abbc"/></g><circle cx="82" cy="281" r="20" fill="#ff7b05"/><path d="M26.476,35.036L43.49,55.604c3.2,3.869,7.96,6.109,12.981,6.109h55.303  c4.902,0,9.561-2.135,12.761-5.849l17.949-20.828C142.484,35.036,26.476,35.036,26.476,35.036z" fill="#2e343a"/><g><path d="M136.748,116.221H32.211c-3.168,0-5.735-2.568-5.735-5.735v-15.4c0-3.168,2.568-5.735,5.735-5.735   h104.537c3.168,0,5.735,2.568,5.735,5.735v15.4C142.484,113.653,139.916,116.221,136.748,116.221z" fill="#707d8c"/><path d="M136.748,172.292H32.211c-3.168,0-5.735-2.568-5.735-5.735v-15.4c0-3.168,2.568-5.735,5.735-5.735   h104.537c3.168,0,5.735,2.568,5.735,5.735v15.4C142.484,169.723,139.916,172.292,136.748,172.292z" fill="#707d8c"/></g></g><g transform="matrix(0.07884865254163742 0 0 0.07884865254163742 91.81474494934082 325.8147449493408)" id="L1_114"><path d="M483.752,150.527c-0.004-8.609-1.845-16.216-5.569-22.744c-3.657-6.42-9.133-11.801-16.482-16.056   C401.055,76.758,340.351,41.896,279.723,6.891c-16.345-9.435-32.192-9.091-48.416,0.48   C207.169,21.607,86.312,90.848,50.299,111.708c-14.833,8.585-22.05,21.724-22.053,38.804c-0.022,70.325,0,140.647-0.022,210.975   c0.003,8.419,1.766,15.879,5.325,22.309c3.66,6.614,9.213,12.144,16.729,16.493c36.017,20.86,156.89,90.097,181.023,104.336   c16.231,9.577,32.078,9.919,48.428,0.48c60.628-35.007,121.337-69.868,181.993-104.835c7.516-4.35,13.069-9.882,16.729-16.491   c3.555-6.432,5.321-13.891,5.325-22.311C483.776,361.469,483.776,220.854,483.752,150.527L483.752,150.527z" fill="#b14796"/><path d="M256.696,255.314L33.549,383.796c3.66,6.614,9.213,12.144,16.729,16.493   c36.017,20.86,156.89,90.097,181.023,104.336c16.231,9.577,32.078,9.919,48.428,0.48c60.628-35.007,121.337-69.868,181.993-104.835   c7.516-4.35,13.069-9.882,16.729-16.491L256.696,255.314z" fill="#782379"/><path d="M483.752,150.527c-0.004-8.609-1.845-16.216-5.569-22.744l-221.487,127.53L478.451,383.78   c3.555-6.432,5.321-13.891,5.325-22.311C483.776,361.469,483.776,220.854,483.752,150.527L483.752,150.527z" fill="#962c87"/><path d="M321.643,292.935C308.723,315.846,284.174,331.33,256,331.33c-28.002,0-52.412-15.29-65.397-37.958   c-6.307-11.016-9.934-23.769-9.934-37.373c0-41.604,33.728-75.33,75.332-75.33c27.822,0,52.102,15.099,65.152,37.536l65.843-37.916   c-26.171-45.175-75.031-75.57-130.995-75.57c-83.553,0-151.283,67.731-151.283,151.28c0,27.41,7.291,53.113,20.037,75.285   C150.859,376.699,199.859,407.28,256,407.28c56.243,0,105.321-30.703,131.388-76.253L321.643,292.935z" fill="#ffffff"/><path d="M450.197,247.349v-14.962H438.04V220.23h-14.962v12.157h-18.236V220.23h-14.963v12.157h-12.157   v14.962h12.157v18.235h-12.157v14.964h12.157v12.155h14.963v-12.155h18.236v12.155h14.962v-12.155h12.158v-14.964H438.04v-18.235   H450.197z M423.078,265.584h-18.236v-18.235h18.236V265.584z" fill="#ffffff"/></g><g transform="matrix(0.06076698750257492 0 0 0.06076698750257492 96.44365119934082 154.44365119934082)" id="L1_115"><path d="m50 0h412c27.614 0 50 22.386 50 50v412c0 27.614-22.386 50-50 50h-412c-27.614 0-50-22.386-50-50v-412c0-27.614 22.386-50 50-50z" fill="#3178c6"/><path d="m50 0h412c27.614 0 50 22.386 50 50v412c0 27.614-22.386 50-50 50h-412c-27.614 0-50-22.386-50-50v-412c0-27.614 22.386-50 50-50z" fill="#3178c6"/><path d="m316.939 407.424v50.061c8.138 4.172 17.763 7.3 28.875 9.386s22.823 3.129 35.135 3.129c21.219 0 44.448-3.035 62.602-14.784 18.064-11.691 26.449-31.14 26.449-52.172 0-15.637-4.851-30.684-15.807-42.081-16.429-17.091-39.516-24.022-60.255-34.183-10.389-5.09-24.727-12.992-24.727-26.361 0-3.441.887-6.543 2.661-9.307 7.132-11.113 22.973-13.376 35.057-13.376 13.717 0 28.189 3.071 40.926 8.76 4.434 1.982 8.529 4.276 12.285 6.884v-46.776c-7.616-2.92-15.937-5.084-24.962-6.492s-19.381-2.112-31.066-2.112c-11.895 0-23.163 1.278-33.805 3.833s-20.006 6.544-28.093 11.967c-8.086 5.424-14.476 12.333-19.171 20.729-4.695 8.395-7.043 18.433-7.043 30.114 0 14.914 4.304 27.638 12.912 38.172 8.607 10.533 21.675 19.45 39.204 26.751 11.792 4.822 24.053 9.581 34.665 16.739 7.355 4.96 14.007 11.877 14.007 21.275 0 6.821-3.856 12.604-9.468 16.192-8.303 5.308-18.936 6.492-28.563 6.492-10.851 0-21.597-1.903-32.24-5.71-10.641-3.806-20.501-9.516-29.578-17.13zm-84.159-123.342h64.22v-41.082h-179v41.082h63.906v182.918h50.874z" fill="#ffffff"/></g><g transform="matrix(0.42620447278022766 0 0 0.42620447278022766 269.11598113179207 60.49736578365594)" id="L1_117"><path d="M80.9,51c4.3-4.7,7.3-9.4,8.4-13.5c0.9-3.4,0.6-6.5-0.8-9c-3.6-6.2-12.8-7.1-23.5-4.8C61.6,13.3,56.3,6,49,6   c-6.7,0-12.4,6.8-16,17.8c-1.3-0.3-2.5-0.5-3.8-0.7c-9.8-1.4-16.9,0.5-19.7,5.5c-1.4,2.5-1.7,5.6-0.8,9c1.1,4.2,4.1,8.8,8.4,13.5   c-4.3,4.7-7.3,9.4-8.4,13.5c-0.9,3.4-0.6,6.5,0.8,9c2.3,3.9,7.1,5.9,13.8,5.9c1.8,0,3.8-0.2,5.9-0.5c1.2-0.2,2.5-0.4,3.8-0.7   c3.5,11,9.3,17.8,16,17.8c7.3,0,12.6-7.4,15.9-17.8c3.5,0.8,6.8,1.2,9.9,1.2c6.3,0,11.2-1.8,13.7-6c1.4-2.4,1.7-5.5,0.8-8.9   C88.2,60.3,85.2,55.8,80.9,51z M14.7,70.5c-0.6-1.1-0.7-2.6-0.2-4.4c0.8-2.9,3.1-6.7,6.8-10.9c2.5,2.3,5.4,4.6,8.4,6.8   c0.4,3.7,0.9,7.2,1.7,10.5C22.8,74.3,16.5,73.6,14.7,70.5z M25.5,51c1.1-1,2.4-2.1,3.7-3.1c0,1,0,2.1,0,3.1c0,1.1,0,2.1,0,3.1   C27.9,53,26.7,52,25.5,51z M29.7,40c-3.1,2.2-5.9,4.5-8.4,6.8c-3.8-4.1-6-7.9-6.8-10.9c-0.5-1.8-0.4-3.3,0.2-4.4c1.1-2,4.2-3,8.4-3   c2.4,0,5.2,0.3,8.3,1C30.7,32.8,30.1,36.3,29.7,40z M61.6,35.5c-0.9-0.5-1.8-1.1-2.7-1.6c-0.9-0.4-1.8-0.9-2.7-1.4   c1.5-0.6,3.1-1.1,4.5-1.6C61,32.5,61.3,34,61.6,35.5z M39.9,22.5c2.6-6.6,6-10.5,9.1-10.5s6.5,3.9,9.1,10.4   c0.4,0.9,0.7,1.9,1.1,2.9c-3.3,1-6.7,2.3-10.1,3.8c-3.4-1.5-6.9-2.8-10.2-3.8C39.2,24.2,39.5,23.3,39.9,22.5z M37.3,31   c1.5,0.4,2.9,1,4.5,1.5c-0.9,0.5-1.8,1-2.7,1.5c-0.9,0.5-1.8,1.1-2.7,1.6C36.7,34,37,32.5,37.3,31z M36.4,66.5   c0.9,0.5,1.8,1.1,2.7,1.6c0.9,0.5,1.8,1,2.7,1.5c-1.5,0.6-3,1.1-4.5,1.5C37,69.5,36.7,68,36.4,66.5z M58.1,79.8   c-2.6,6.5-6,10.4-9.1,10.4s-6.5-3.9-9.1-10.5c-0.4-0.9-0.7-1.9-1-2.9c3.3-1,6.7-2.3,10.2-3.8c3.4,1.5,6.8,2.8,10.1,3.8   C58.8,77.8,58.5,78.8,58.1,79.8z M60.7,71c-1.5-0.5-3-1-4.5-1.6c0.9-0.5,1.8-1,2.7-1.5c0.9-0.4,1.8-1,2.7-1.5   C61.3,68,61,69.5,60.7,71z M62.5,58.8c-2,1.4-4.2,2.8-6.6,4.1c-2.3,1.3-4.7,2.5-6.9,3.6c-2.3-1.1-4.6-2.3-6.9-3.6   c-2.4-1.3-4.5-2.7-6.6-4.1c-0.2-2.5-0.3-5.1-0.3-7.7s0.1-5.2,0.3-7.7c2.1-1.4,4.2-2.7,6.6-4.1c2.3-1.3,4.6-2.5,6.9-3.6   c2.3,1.1,4.6,2.3,6.9,3.6c2.4,1.3,4.5,2.7,6.6,4.1c0.2,2.5,0.3,5.1,0.3,7.7S62.7,56.2,62.5,58.8z M74.8,28.5c4.3,0,7.4,1.1,8.6,3.1   c0.6,1.1,0.7,2.6,0.2,4.4c-0.8,2.9-3.1,6.7-6.8,10.9c-2.5-2.3-5.4-4.6-8.5-6.8c-0.4-3.6-1-7.2-1.7-10.5   C69.6,28.8,72.4,28.5,74.8,28.5z M68.7,48C70,49,71.2,50,72.4,51c-1.1,1-2.4,2.1-3.7,3.1c0-1.1,0.1-2.1,0.1-3.1S68.8,49,68.7,48z    M83.3,70.5c-1.8,3.1-8.1,3.9-16.8,2.1c0.8-3.4,1.3-6.9,1.7-10.5c3.1-2.2,5.9-4.5,8.5-6.8c3.8,4.1,6,7.9,6.8,10.9   C84,68,83.9,69.5,83.3,70.5z" fill="#34b9f5"/><path d="M49,42c-5,0-9,4-9,9s4,9,9,9s9-4,9-9S54,42,49,42z M49,54c-1.7,0-3-1.3-3-3s1.3-3,3-3s3,1.3,3,3S50.7,54,49,54   z" fill="#34b9f5"/></g><g transform="matrix(0.07027193158864975 0 0 0.07027193158864975 10.244963355362415 151.20349466945493)" id="L1_119"><path d="m424 202.5h48c16.570312 0 30-13.429688 30-30v-132c0-16.570312-13.429688-30-30-30h-432c-16.570312 0-30 13.429688-30 30v132c0 16.570312 13.429688 30 30 30zm0 0" fill="#ffc66c"/><path d="m378.09375 358.40625 83.089844 83.089844c9.339844 9.339844 24.476562 9.339844 33.8125 0 9.339844-9.335938 9.339844-24.472656 0-33.808594l-83.089844-83.09375zm0 0" fill="#ff5d5d"/><path d="m430.003906 256.5c0 66.273438-53.726562 120-120 120-66.273437 0-120-53.726562-120-120s53.726563-120 120-120c66.273438 0 120 53.726562 120 120zm0 0" fill="#ffffff"/><path d="m388.003906 256.5c0 43.078125-34.921875 78-78 78s-78-34.921875-78-78 34.921875-78 78-78 78 34.921875 78 78zm0 0" fill="#72d8ff"/><path d="m310.003906 168.5c-48.523437 0-88 39.476562-88 88s39.476563 88 88 88c48.523438 0 88-39.476562 88-88s-39.476562-88-88-88zm0 156c-37.496094 0-68-30.503906-68-68s30.503906-68 68-68 68 30.503906 68 68-30.503906 68-68 68zm0 0"/><path d="m310.003906 211.503906c-5.523437 0-10 4.476563-10 10 0 5.523438 4.476563 10 10 10 13.78125 0 24.996094 11.214844 24.996094 24.996094 0 5.523438 4.476562 10 10 10s10-4.476562 10-10c0-24.8125-20.183594-44.996094-44.996094-44.996094zm0 0"/><path d="m61.644531 75.902344c-2.539062-4.902344-8.570312-6.820313-13.476562-4.285156-4.90625 2.539062-6.824219 8.574218-4.285157 13.480468l26.917969 52c1.742188 3.367188 5.265625 5.425782 9.03125 5.402344 3.789063-.058594 7.222657-2.253906 8.863281-5.671875l16.296876-33.929687 17.699218 34.199218c1.722656 3.320313 5.148438 5.402344 8.882813 5.402344h.148437c3.792969-.058594 7.222656-2.253906 8.867188-5.671875l24.972656-52c2.390625-4.976563.292969-10.953125-4.683594-13.34375-4.980468-2.390625-10.953125-.292969-13.34375 4.6875l-16.296875 33.929687-17.703125-34.199218c-1.742187-3.367188-5.257812-5.433594-9.027344-5.402344-3.792968.058594-7.226562 2.253906-8.867187 5.671875l-16.292969 33.929687zm0 0"/><path d="m125.988281 20.5c2.632813 0 5.210938-1.070312 7.070313-2.929688 1.863281-1.859374 2.929687-4.441406 2.929687-7.070312s-1.066406-5.210938-2.929687-7.070312c-1.859375-1.859376-4.4375-2.929688-7.070313-2.929688-2.628906 0-5.207031 1.070312-7.066406 2.929688-1.863281 1.859374-2.933594 4.441406-2.933594 7.070312s1.070313 5.210938 2.933594 7.070312c1.859375 1.859376 4.4375 2.929688 7.066406 2.929688zm0 0"/><path d="m512 172.5v-132c0-22.054688-17.945312-40-40-40h-304.011719c-5.519531 0-10 4.476562-10 10s4.480469 10 10 10h304.011719c11.027344 0 20 8.972656 20 20v132c0 11.027344-8.972656 20-20 20h-48c-.289062 0-.570312.019531-.851562.042969-15.433594-27.195313-40.382813-48.304688-70.292969-58.777344l14.824219-30.863281 17.703124 34.195312c1.71875 3.324219 5.144532 5.402344 8.878907 5.402344h.152343c3.789063-.058594 7.222657-2.253906 8.863282-5.671875l24.972656-52c2.390625-4.976563.292969-10.949219-4.683594-13.339844-4.976562-2.394531-10.953125-.296875-13.34375 4.683594l-16.292968 33.929687-17.703126-34.199218c-1.742187-3.367188-5.253906-5.433594-9.03125-5.398438-3.792968.054688-7.222656 2.25-8.863281 5.667969l-16.296875 33.929687-17.699218-34.199218c-2.539063-4.902344-8.574219-6.820313-13.480469-4.28125-4.90625 2.539062-6.820313 8.570312-4.285157 13.476562l22.132813 42.753906c-6.105469-.882812-12.347656-1.351562-18.695313-1.351562-12.292968 0-24.195312 1.71875-35.476562 4.921875l22.378906-46.59375c2.390625-4.976563.292969-10.949219-4.6875-13.339844-4.976562-2.394531-10.953125-.296875-13.339844 4.683594l-16.296874 33.929687-17.703126-34.199218c-1.742187-3.367188-5.238281-5.433594-9.03125-5.398438-3.789062.054688-7.222656 2.25-8.863281 5.667969l-16.292969 33.929687-17.703124-34.199218c-2.539063-4.902344-8.570313-6.820313-13.476563-4.28125-4.90625 2.539062-6.824219 8.570312-4.285156 13.476562l26.917969 52c1.742187 3.367188 5.25 5.425782 9.03125 5.402344 3.789062-.058594 7.222656-2.253906 8.863281-5.671875l16.296875-33.925781 17.699218 34.195312c.296876.574219.660157 1.09375 1.054688 1.589844-24.523438 11.476562-44.898438 30.382812-58.207031 53.8125h-156.886719c-11.027344 0-20-8.972656-20-20v-132c0-11.027344 8.972656-20 20-20h40.992188c5.523437 0 10-4.476562 10-10s-4.476563-10-10-10h-40.992188c-22.054688 0-40 17.945312-40 40v132c0 22.058594 17.945312 40 40 40h147.675781c-4.960937 13.75-7.671875 28.5625-7.671875 44 0 71.683594 58.316406 130 130 130 23.554688 0 45.667969-6.296875 64.742188-17.296875l79.367187 79.367187c6.609375 6.609376 15.292969 9.914063 23.976563 9.914063s17.367187-3.304687 23.976562-9.914063c13.222656-13.222656 13.222656-34.734374 0-47.957031l-31.183594-31.183593c-3.90625-3.902344-10.238281-3.90625-14.140624 0-3.90625 3.90625-3.90625 10.234374 0 14.140624l31.183593 31.1875c5.421875 5.421876 5.421875 14.246094 0 19.671876-5.421875 5.421874-14.246093 5.421874-19.667969 0l-76.738281-76.742188c29.546875-23.847656 48.484375-60.34375 48.484375-101.1875 0-15.4375-2.710937-30.25-7.671875-44h39.667969c22.058594 0 40-17.945312 40-40zm-201.996094 194c-60.652344 0-110-49.347656-110-110s49.347656-110 110-110 110 49.347656 110 110-49.34375 110-110 110zm0 0"/><path d="m433.019531 345.710938c-1.859375 1.859374-2.929687 4.4375-2.929687 7.070312 0 2.628906 1.070312 5.207031 2.929687 7.070312 1.871094 1.859376 4.441407 2.929688 7.070313 2.929688s5.210937-1.070312 7.070312-2.929688c1.871094-1.863281 2.929688-4.441406 2.929688-7.070312 0-2.632812-1.058594-5.210938-2.929688-7.070312-1.859375-1.859376-4.429687-2.929688-7.070312-2.929688-2.628906 0-5.210938 1.070312-7.070313 2.929688zm0 0"/></g><g transform="matrix(0.05531172826886177 0 0 0.05531172826886177 14.840197563171387 69.84019756317139)" id="L1_120"><path d="m480.109375 128.144531-244.125-20.015625v295.742188l244.125-20.015625zm0 0" fill="#03232e"/><g fill="#07485e"><path d="m31.894531 128.144531v255.710938l224.109375 20.015625v-295.742188zm0 0"/><path d="m512 0h-255.996094l-20.019531 64.070312 20.019531 64.074219h255.996094zm0 0"/><path d="m512 320.070312v-128.140624h-255.996094l-20.019531 64.070312 20.019531 64.070312zm0 0"/><path d="m512 512v-128.144531h-255.996094l-20.019531 64.074219 20.019531 64.070312zm0 0"/></g><path d="m0 0h256.003906v128.144531h-256.003906zm0 0" fill="#0b799d"/><path d="m0 191.929688h256.003906v128.140624h-256.003906zm0 0" fill="#0b799d"/><path d="m0 383.855469h256.003906v128.144531h-256.003906zm0 0" fill="#0b799d"/><path d="m326.070312 49.070312h138.089844v30h-138.089844zm0 0" fill="#b4d2d7"/><path d="m326.070312 241h138.089844v30h-138.089844zm0 0" fill="#b4d2d7"/><path d="m326.070312 432.929688h138.089844v30h-138.089844zm0 0" fill="#b4d2d7"/><path d="m47.839844 49.070312h31.890625v30h-31.890625zm0 0" fill="#00ff94"/><path d="m111.625 49.070312h31.894531v30h-31.894531zm0 0" fill="#ffd422"/><path d="m47.839844 241h31.890625v30h-31.890625zm0 0" fill="#00ff94"/><path d="m111.625 241h31.894531v30h-31.894531zm0 0" fill="#ffd422"/><path d="m47.839844 432.929688h31.890625v30h-31.890625zm0 0" fill="#00ff94"/><path d="m111.625 432.929688h31.894531v30h-31.894531zm0 0" fill="#ffd422"/></g></defs><g fi:class="KUsePattern"><pattern id="pattern_L1_0" width="350" height="350" patternUnits="userSpaceOnUse"><use xlink:href="#L1_0" x="-350" y="-350"/><use xlink:href="#L1_0" x="0" y="-350"/><use xlink:href="#L1_0" x="350" y="-350"/><use xlink:href="#L1_0" x="-350" y="0"/><use xlink:href="#L1_0" x="0" y="0"/><use xlink:href="#L1_0" x="350" y="0"/><use xlink:href="#L1_0" x="-350" y="350"/><use xlink:href="#L1_0" x="0" y="350"/><use xlink:href="#L1_0" x="350" y="350"/></pattern><rect x="0" y="0" width="100%" height="100%" fill="url(#pattern_L1_0)"/></g><g fi:class="KUsePattern"><pattern id="pattern_L1_1" width="350" height="350" patternUnits="userSpaceOnUse"><use xlink:href="#L1_1" x="-350" y="-350"/><use xlink:href="#L1_1" x="0" y="-350"/><use xlink:href="#L1_1" x="350" y="-350"/><use xlink:href="#L1_1" x="-350" y="0"/><use xlink:href="#L1_1" x="0" y="0"/><use xlink:href="#L1_1" x="350" y="0"/><use xlink:href="#L1_1" x="-350" y="350"/><use xlink:href="#L1_1" x="0" y="350"/><use xlink:href="#L1_1" x="350" y="350"/></pattern><rect x="0" y="0" width="100%" height="100%" fill="url(#pattern_L1_1)"/></g><g fi:class="KUsePattern"><pattern id="pattern_L1_3" width="350" height="350" patternUnits="userSpaceOnUse"><use xlink:href="#L1_3" x="-350" y="-350"/><use xlink:href="#L1_3" x="0" y="-350"/><use xlink:href="#L1_3" x="350" y="-350"/><use xlink:href="#L1_3" x="-350" y="0"/><use xlink:href="#L1_3" x="0" y="0"/><use xlink:href="#L1_3" x="350" y="0"/><use xlink:href="#L1_3" x="-350" y="350"/><use xlink:href="#L1_3" x="0" y="350"/><use xlink:href="#L1_3" x="350" y="350"/></pattern><rect x="0" y="0" width="100%" height="100%" fill="url(#pattern_L1_3)"/></g><g fi:class="KUsePattern"><pattern id="pattern_L1_4" width="350" height="350" patternUnits="userSpaceOnUse"><use xlink:href="#L1_4" x="-350" y="-350"/><use xlink:href="#L1_4" x="0" y="-350"/><use xlink:href="#L1_4" x="350" y="-350"/><use xlink:href="#L1_4" x="-350" y="0"/><use xlink:href="#L1_4" x="0" y="0"/><use xlink:href="#L1_4" x="350" y="0"/><use xlink:href="#L1_4" x="-350" y="350"/><use xlink:href="#L1_4" x="0" y="350"/><use xlink:href="#L1_4" x="350" y="350"/></pattern><rect x="0" y="0" width="100%" height="100%" fill="url(#pattern_L1_4)"/></g><g fi:class="KUsePattern"><pattern id="pattern_L1_8" width="350" height="350" patternUnits="userSpaceOnUse"><use xlink:href="#L1_8" x="-350" y="-350"/><use xlink:href="#L1_8" x="0" y="-350"/><use xlink:href="#L1_8" x="350" y="-350"/><use xlink:href="#L1_8" x="-350" y="0"/><use xlink:href="#L1_8" x="0" y="0"/><use xlink:href="#L1_8" x="350" y="0"/><use xlink:href="#L1_8" x="-350" y="350"/><use xlink:href="#L1_8" x="0" y="350"/><use xlink:href="#L1_8" x="350" y="350"/></pattern><rect x="0" y="0" width="100%" height="100%" fill="url(#pattern_L1_8)"/></g><g fi:class="KUsePattern"><pattern id="pattern_L1_10" width="350" height="350" patternUnits="userSpaceOnUse"><use xlink:href="#L1_10" x="-350" y="-350"/><use xlink:href="#L1_10" x="0" y="-350"/><use xlink:href="#L1_10" x="350" y="-350"/><use xlink:href="#L1_10" x="-350" y="0"/><use xlink:href="#L1_10" x="0" y="0"/><use xlink:href="#L1_10" x="350" y="0"/><use xlink:href="#L1_10" x="-350" y="350"/><use xlink:href="#L1_10" x="0" y="350"/><use xlink:href="#L1_10" x="350" y="350"/></pattern><rect x="0" y="0" width="100%" height="100%" fill="url(#pattern_L1_10)"/></g><g fi:class="KUsePattern"><pattern id="pattern_L1_12" width="350" height="350" patternUnits="userSpaceOnUse"><use xlink:href="#L1_12" x="-350" y="-350"/><use xlink:href="#L1_12" x="0" y="-350"/><use xlink:href="#L1_12" x="350" y="-350"/><use xlink:href="#L1_12" x="-350" y="0"/><use xlink:href="#L1_12" x="0" y="0"/><use xlink:href="#L1_12" x="350" y="0"/><use xlink:href="#L1_12" x="-350" y="350"/><use xlink:href="#L1_12" x="0" y="350"/><use xlink:href="#L1_12" x="350" y="350"/></pattern><rect x="0" y="0" width="100%" height="100%" fill="url(#pattern_L1_12)"/></g><g fi:class="KUsePattern"><pattern id="pattern_L1_108" width="350" height="350" patternUnits="userSpaceOnUse"><use xlink:href="#L1_108" x="-350" y="-350"/><use xlink:href="#L1_108" x="0" y="-350"/><use xlink:href="#L1_108" x="350" y="-350"/><use xlink:href="#L1_108" x="-350" y="0"/><use xlink:href="#L1_108" x="0" y="0"/><use xlink:href="#L1_108" x="350" y="0"/><use xlink:href="#L1_108" x="-350" y="350"/><use xlink:href="#L1_108" x="0" y="350"/><use xlink:href="#L1_108" x="350" y="350"/></pattern><rect x="0" y="0" width="100%" height="100%" fill="url(#pattern_L1_108)"/></g><g fi:class="KUsePattern"><pattern id="pattern_L1_111" width="350" height="350" patternUnits="userSpaceOnUse"><use xlink:href="#L1_111" x="-350" y="-350"/><use xlink:href="#L1_111" x="0" y="-350"/><use xlink:href="#L1_111" x="350" y="-350"/><use xlink:href="#L1_111" x="-350" y="0"/><use xlink:href="#L1_111" x="0" y="0"/><use xlink:href="#L1_111" x="350" y="0"/><use xlink:href="#L1_111" x="-350" y="350"/><use xlink:href="#L1_111" x="0" y="350"/><use xlink:href="#L1_111" x="350" y="350"/></pattern><rect x="0" y="0" width="100%" height="100%" fill="url(#pattern_L1_111)"/></g><g fi:class="KUsePattern"><pattern id="pattern_L1_112" width="350" height="350" patternUnits="userSpaceOnUse"><use xlink:href="#L1_112" x="-350" y="-350"/><use xlink:href="#L1_112" x="0" y="-350"/><use xlink:href="#L1_112" x="350" y="-350"/><use xlink:href="#L1_112" x="-350" y="0"/><use xlink:href="#L1_112" x="0" y="0"/><use xlink:href="#L1_112" x="350" y="0"/><use xlink:href="#L1_112" x="-350" y="350"/><use xlink:href="#L1_112" x="0" y="350"/><use xlink:href="#L1_112" x="350" y="350"/></pattern><rect x="0" y="0" width="100%" height="100%" fill="url(#pattern_L1_112)"/></g><g fi:class="KUsePattern"><pattern id="pattern_L1_113" width="350" height="350" patternUnits="userSpaceOnUse"><use xlink:href="#L1_113" x="-350" y="-350"/><use xlink:href="#L1_113" x="0" y="-350"/><use xlink:href="#L1_113" x="350" y="-350"/><use xlink:href="#L1_113" x="-350" y="0"/><use xlink:href="#L1_113" x="0" y="0"/><use xlink:href="#L1_113" x="350" y="0"/><use xlink:href="#L1_113" x="-350" y="350"/><use xlink:href="#L1_113" x="0" y="350"/><use xlink:href="#L1_113" x="350" y="350"/></pattern><rect x="0" y="0" width="100%" height="100%" fill="url(#pattern_L1_113)"/></g><g fi:class="KUsePattern"><pattern id="pattern_L1_114" width="350" height="350" patternUnits="userSpaceOnUse"><use xlink:href="#L1_114" x="-350" y="-350"/><use xlink:href="#L1_114" x="0" y="-350"/><use xlink:href="#L1_114" x="350" y="-350"/><use xlink:href="#L1_114" x="-350" y="0"/><use xlink:href="#L1_114" x="0" y="0"/><use xlink:href="#L1_114" x="350" y="0"/><use xlink:href="#L1_114" x="-350" y="350"/><use xlink:href="#L1_114" x="0" y="350"/><use xlink:href="#L1_114" x="350" y="350"/></pattern><rect x="0" y="0" width="100%" height="100%" fill="url(#pattern_L1_114)"/></g><g fi:class="KUsePattern"><pattern id="pattern_L1_115" width="350" height="350" patternUnits="userSpaceOnUse"><use xlink:href="#L1_115" x="-350" y="-350"/><use xlink:href="#L1_115" x="0" y="-350"/><use xlink:href="#L1_115" x="350" y="-350"/><use xlink:href="#L1_115" x="-350" y="0"/><use xlink:href="#L1_115" x="0" y="0"/><use xlink:href="#L1_115" x="350" y="0"/><use xlink:href="#L1_115" x="-350" y="350"/><use xlink:href="#L1_115" x="0" y="350"/><use xlink:href="#L1_115" x="350" y="350"/></pattern><rect x="0" y="0" width="100%" height="100%" fill="url(#pattern_L1_115)"/></g><g fi:class="KUsePattern"><pattern id="pattern_L1_117" width="350" height="350" patternUnits="userSpaceOnUse"><use xlink:href="#L1_117" x="-350" y="-350"/><use xlink:href="#L1_117" x="0" y="-350"/><use xlink:href="#L1_117" x="350" y="-350"/><use xlink:href="#L1_117" x="-350" y="0"/><use xlink:href="#L1_117" x="0" y="0"/><use xlink:href="#L1_117" x="350" y="0"/><use xlink:href="#L1_117" x="-350" y="350"/><use xlink:href="#L1_117" x="0" y="350"/><use xlink:href="#L1_117" x="350" y="350"/></pattern><rect x="0" y="0" width="100%" height="100%" fill="url(#pattern_L1_117)"/></g><g fi:class="KUsePattern"><pattern id="pattern_L1_119" width="350" height="350" patternUnits="userSpaceOnUse"><use xlink:href="#L1_119" x="-350" y="-350"/><use xlink:href="#L1_119" x="0" y="-350"/><use xlink:href="#L1_119" x="350" y="-350"/><use xlink:href="#L1_119" x="-350" y="0"/><use xlink:href="#L1_119" x="0" y="0"/><use xlink:href="#L1_119" x="350" y="0"/><use xlink:href="#L1_119" x="-350" y="350"/><use xlink:href="#L1_119" x="0" y="350"/><use xlink:href="#L1_119" x="350" y="350"/></pattern><rect x="0" y="0" width="100%" height="100%" fill="url(#pattern_L1_119)"/></g><g fi:class="KUsePattern"><pattern id="pattern_L1_120" width="350" height="350" patternUnits="userSpaceOnUse"><use xlink:href="#L1_120" x="-350" y="-350"/><use xlink:href="#L1_120" x="0" y="-350"/><use xlink:href="#L1_120" x="350" y="-350"/><use xlink:href="#L1_120" x="-350" y="0"/><use xlink:href="#L1_120" x="0" y="0"/><use xlink:href="#L1_120" x="350" y="0"/><use xlink:href="#L1_120" x="-350" y="350"/><use xlink:href="#L1_120" x="0" y="350"/><use xlink:href="#L1_120" x="350" y="350"/></pattern><rect x="0" y="0" width="100%" height="100%" fill="url(#pattern_L1_120)"/></g></svg>