<?xml version="1.0" encoding="UTF-8" standalone="no"?>
<svg
   viewBox="0 0 70 70"
   version="1.1"
   id="pc"
   xmlns:xlink="http://www.w3.org/1999/xlink"
   xmlns="http://www.w3.org/2000/svg">
  <g
     stroke="none"
     id="g17101"
     transform="translate(0,-8.46358)">
    <path
       d="m 69.02,21.578 v 23.67 l -7.768,4.735 V 26.312 Z"
       fill="#c3c3c3"
       id="path17073" />
    <path
       d="m 53.484,12.11 -7.768,4.734 15.536,9.469 7.768,-4.735 z"
       fill="#d3d3d3"
       id="path17075" />
    <path
       d="m 45.716,16.844 v 23.671 l 15.536,9.469 V 26.313 Z"
       fill="#dadada"
       id="path17077" />
    <g
       fill="#eeeeee"
       id="g17081">
      <path
         d="m 62.25,29.034 5.77,-3.55 v -0.947 l -5.77,3.55 z m 0,1.539 5.77,-3.55 v -0.947 l -5.77,3.55 z m 0,1.538 5.77,-3.55 v -0.947 l -5.77,3.55 z"
         id="path17079" />
    </g>
    <g
       fill="#b9b9b9"
       id="g17087">
      <path
         d="m 21.173,48.972 8.424,2.75 q 2.898,0.915 0.504,2.352 l -7.938,4.702 q -2.016,1.175 -4.032,-1.045 l -4.187,-4.67 z"
         id="path17083" />
      <path
         d="m 13.944,53.06 4.187,4.67 q 1.243,1.369 2.486,1.447 v 1.106 Q 19.374,60.205 18.131,58.82 l -4.187,-4.67 z"
         id="path17085" />
    </g>
    <path
       d="M 73.471,63.076 Q 75,62.803 75,61.44 V 31.456 q 0,-0.689 -0.319,-1.203 l -2.183,1.203 0.973,31.619"
       fill="url(#a)"
       transform="matrix(-1,0,0,1,75.737,0.479)"
       id="path17089"
       style="fill:url(#a)" />
    <path
       d="M 40.638,9.856 Q 39.665,8.766 38.414,9.446 L 1.99,29.892 q -0.619,0.337 -0.932,0.84 l 2.183,1.204 37.398,-22.08"
       fill="#e3e3e3"
       id="path17091" />
    <path
       d="M 1.99,58.513 40.916,36.706 v 4.36 q 0,1.09 -0.973,1.636 L 2.963,63.419 Q 1.989,63.964 1.989,62.874 Z"
       fill="#dadada"
       id="path17093" />
    <path
       d="M 40.916,36.706 V 10.538 q 0,-1.09 -0.973,-0.545 L 2.963,30.709 Q 1.989,31.254 1.989,32.344 V 58.512 L 40.916,36.706"
       fill="#4d4d4d"
       id="path17095" />
    <path
       d="M 3.24,56.468 V 31.936 L 39.664,11.492 V 36.024 L 3.24,56.468"
       fill="#00aaff"
       id="path17097" />
    <path
       d="m 10.768,76.047 q -0.074,-0.06 -0.083,0.34"
       fill="#c1c1c1"
       fill-opacity="0.56"
       id="path17099" />
  </g>
  <path
     d="m 57.13,46.01342 -0.008,0.096"
     fill="none"
     stroke="#cfd8dc"
     stroke-linecap="square"
     stroke-linejoin="miter"
     stroke-width="0.725"
     id="path17103" />
  <path
     d="m 64.29,48.56642 q 0.08,0.819 -0.362,1.088 l -1.85,0.919 q -0.613,0.255 -1.252,-0.264 l -5.183,-3.85 c -0.609,-0.44 -0.044,-0.583 -0.176,-0.594 z"
     fill="#bdbdbd"
     stroke="none"
     id="path17105" />
  <path
     d="m 63.178,49.95642 c -0.54,0.3 -1.202,0.685 -2.147,0.39 -1.248,-0.746 -2.23,-2.356 -2.443,-2.53 -0.282,-0.256 -1.327,-1.37 -2.932,-1.51 -0.296,-0.103 -0.351,-0.34 -0.111,-0.473 0.524,-0.34 1.907,-1.242 3.083,-1.197 1.762,0.309 2.333,0.744 2.766,1.014 2.623,1.561 2.931,2.61 2.897,2.994 -0.042,0.478 -0.107,0.685 -0.243,0.828 -0.32,0.28 -0.43,0.232 -0.87,0.483 z"
     fill="#9c9c9c"
     stroke="none"
     id="path17107" />
  <path
     d="m 63.227,49.82442 c -0.682,0.404 -1.39,0.65 -2.18,0.33 -1.182,-0.624 -2.177,-2.293 -2.391,-2.467 -0.156,-0.141 -0.575,-0.542 -1.19,-0.896 a 4.487,4.487 0 0 0 -1.839,-0.604 c -0.295,-0.103 -0.24,-0.291 0,-0.425 0.525,-0.34 1.786,-1.271 2.962,-1.226 1.762,0.309 2.26,0.746 2.73,0.992 2.623,1.56 2.931,2.61 2.897,2.993 -0.042,0.48 -0.146,0.613 -0.257,0.796 -0.295,0.322 -0.469,0.318 -0.733,0.508 z"
     fill="#e5e5e5"
     stroke="none"
     id="path17109" />
  <path
     d="m 58.429,45.30942 c -0.05,0.05 -0.104,0.088 -0.18,0.079 a 1.934,1.934 0 0 1 -0.299,-0.11 c -0.03,-0.014 -0.183,-0.065 -0.255,-0.114 -0.011,-0.01 -0.035,-0.006 -0.01,-0.028 0.036,-0.041 0.123,-0.15 0.225,-0.173 0.158,-0.013 0.213,0.01 0.256,0.023 0.26,0.073 0.311,0.156 0.317,0.19 a 0.136,0.136 0 0 1 -0.002,0.075 c -0.02,0.031 -0.035,0.036 -0.053,0.058 z m 1.471,2.78 c -0.87,-0.943 -1.822,-1.686 -2.757,-1.852 0.875,-0.04 1.632,0.581 1.973,0.836 0.664,0.604 0.537,0.777 0.784,1.015 z"
     fill="#eeeeee"
     stroke="none"
     id="path17111" />
  <path
     d="m 65.158,33.64542 q 0.923,-0.471 1.034,0.6 0.074,1.25 -0.985,1.783 -0.813,0.305 -0.948,-0.483 -0.136,-1.25 0.899,-1.901 z"
     fill="#dcdcdc"
     stroke="none"
     id="path17113" />
  <path
     d="m 65.17,33.75642 q 0.86,-0.438 0.963,0.558 0.069,1.163 -0.916,1.659 -0.756,0.284 -0.882,-0.45 -0.126,-1.162 0.836,-1.768 z"
     fill="#9c9c9c"
     stroke="none"
     id="path17115" />
  <path
     d="m 65.29,33.81642 c 0.573,-0.292 0.894,-0.105 0.963,0.559 0.045,0.775 -0.26,1.328 -0.916,1.658 -0.504,0.19 -0.798,0.04 -0.882,-0.448 -0.063,-0.573 0.073,-1.045 0.408,-1.415 0.117,-0.13 0.26,-0.248 0.427,-0.354 z"
     fill="#eeeeee"
     stroke="none"
     id="path17117" />
  <path
     d="m 31.176,44.32342 q 0.102,0.58 -1.075,1.286 l -7.938,4.702 q -0.773,0.45 -1.546,0.402 v 1.106 q 0.773,0.048 1.546,-0.418 l 7.938,-4.702 q 1.177,-0.706 1.075,-1.286 l 0.007,-1.09"
     fill="#d3d3d3"
     stroke="none"
     id="path17119" />
  <path
     d="m 24.187,68.21042 28.547,-16.652 -12.013,-6.89 -28.547,16.508 z"
     fill="#eceff1"
     stroke="none"
     id="path17121" />
  <path
     d="m 12.047,61.19942 12.164,7.123 v 1.163 l -12.164,-7.123 z"
     fill="#9c9c9c"
     stroke="none"
     id="path17123" />
  <path
     d="m 24.21,69.48542 v -1.163 l 28.91,-16.862 v 1.163 l -28.91,16.862"
     fill="#cdcdcd"
     stroke="none"
     id="path17125" />
  <path
     d="m 24.21,68.32242 28.91,-16.862 -12.164,-6.977 -28.908,16.716 z m 17.747,-11.047 -9.731,5.669 -1.717,-1.017 9.73,-5.67 z m -26.047,3.489 -1.717,1.017 -1.002,-0.581 1.717,-1.017 z m 2.003,-1.163 -1.717,1.017 -1.002,-0.581 1.717,-1.017 z m 2.004,-1.163 -1.717,1.017 -1.002,-0.581 1.717,-1.017 z m 2.004,-1.163 -1.717,1.017 -1.002,-0.581 1.717,-1.017 z m 2.004,-1.163 -1.717,1.017 -1.002,-0.581 1.717,-1.017 z m 2.004,-1.163 -1.717,1.017 -1.002,-0.581 1.717,-1.017 z m 2.004,-1.163 -1.717,1.017 -1.002,-0.581 1.717,-1.017 z m 2.003,-1.163 -1.717,1.017 -1.002,-0.581 1.717,-1.017 z m 2.004,-1.163 -1.717,1.017 -1.002,-0.581 1.717,-1.017 z m 2.004,-1.163 -1.717,1.017 -1.002,-0.581 1.717,-1.017 z m 2.004,-1.163 -1.717,1.017 -1.002,-0.581 1.717,-1.017 z m 2.004,-1.163 -1.717,1.017 -1.002,-0.581 1.717,-1.017 z m 2.004,-1.163 -1.717,1.017 -1.002,-0.581 1.717,-1.017 z m 2.003,-1.163 -1.717,1.017 -1.002,-0.581 1.717,-1.017 z m -22.756,15.554 -3.005,1.744 -1.717,-1.017 3.005,-1.744 z m 2.004,-1.163 -1.717,1.018 -1.717,-1.018 1.717,-1.017 z m 2.003,-1.163 -1.717,1.018 -1.717,-1.018 1.717,-1.017 z m 2.004,-1.163 -1.717,1.018 -1.717,-1.018 1.717,-1.017 z m 2.004,-1.163 -1.718,1.018 -1.717,-1.018 1.717,-1.017 z m 2.004,-1.163 -1.717,1.018 -1.717,-1.018 1.717,-1.017 z m 2.004,-1.163 -1.717,1.018 -1.717,-1.018 1.717,-1.017 z m 2.004,-1.163 -1.717,1.018 -1.717,-1.018 1.717,-1.017 z m 2.003,-1.163 -1.717,1.018 -1.717,-1.018 1.717,-1.017 z m 2.004,-1.163 -1.717,1.018 -1.717,-1.018 1.717,-1.017 z m 2.004,-1.163 -1.717,1.018 -1.717,-1.018 1.717,-1.017 z m 2.004,-1.163 -1.717,1.018 -1.717,-1.018 1.717,-1.017 z m 2.719,-1.6 -2.433,1.455 -1.717,-1.017 2.433,-1.454 z m -23.756,16.137 -2.004,1.163 -1.717,-1.017 2.004,-1.163 z m 2.004,-1.163 -1.717,1.018 -1.717,-1.018 1.717,-1.017 z m 2.004,-1.163 -1.717,1.018 -1.717,-1.018 1.717,-1.017 z m 2.004,-1.163 -1.717,1.018 -1.717,-1.018 1.717,-1.017 z m 2.004,-1.163 -1.717,1.018 -1.717,-1.018 1.717,-1.017 z m 2.003,-1.163 -1.717,1.018 -1.717,-1.018 1.717,-1.017 z m 2.004,-1.163 -1.717,1.018 -1.717,-1.018 1.717,-1.017 z m 2.004,-1.163 -1.717,1.018 -1.717,-1.018 1.717,-1.017 z m 2.004,-1.163 -1.717,1.018 -1.717,-1.018 1.717,-1.017 z m 2.004,-1.163 -1.717,1.018 -1.717,-1.018 1.717,-1.017 z m 2.004,-1.163 -1.717,1.018 -1.717,-1.018 1.717,-1.017 z m 2.003,-1.163 -1.717,1.018 -1.717,-1.018 1.717,-1.017 z m 1.996,-1.16 -1.717,1.018 -1.717,-1.018 1.717,-1.017 z m 1.717,-1.018 -1.431,0.872 -1.717,-1.017 1.43,-0.872 z m -20.751,14.39 -1.717,1.019 -1.717,-1.018 1.717,-1.017 z m -2.003,1.164 -3.005,1.744 -1.717,-1.017 3.005,-1.744 z m 4.007,-2.326 -1.717,1.018 -1.717,-1.018 1.717,-1.017 z m 2.004,-1.164 -1.717,1.018 -1.717,-1.018 1.717,-1.017 z m 4.007,-2.326 -1.717,1.018 -1.717,-1.018 1.717,-1.017 z m -2.004,1.163 -1.717,1.018 -1.717,-1.018 1.717,-1.017 z m 6.01,-3.49 -1.717,1.019 -1.717,-1.018 1.717,-1.017 z m -2.004,1.164 -1.717,1.018 -1.717,-1.018 1.717,-1.017 z m 6.01,-3.49 -1.716,1.019 -1.717,-1.018 1.717,-1.017 z m -2.003,1.164 -1.717,1.018 -1.717,-1.018 1.717,-1.017 z m 6.01,-3.49 -1.716,1.019 -1.717,-1.018 1.717,-1.017 z m -2.003,1.164 -1.717,1.018 -1.717,-1.018 1.717,-1.017 z m 4.723,-2.762 -2.433,1.454 -1.717,-1.017 2.433,-1.454 z m -22.04,15.117 -3.72,2.18 -1.717,-1.018 3.72,-2.18 z m 2.005,-1.163 -1.717,1.018 -1.717,-1.018 1.717,-1.017 z m 2.003,-1.163 -1.717,1.018 -1.717,-1.018 1.717,-1.017 z m 2.004,-1.163 -1.717,1.018 -1.717,-1.018 1.717,-1.017 z m 2.004,-1.163 -1.717,1.018 -1.717,-1.018 1.717,-1.017 z m 2.004,-1.163 -1.717,1.018 -1.717,-1.018 1.717,-1.017 z m 2.004,-1.163 -1.717,1.018 -1.717,-1.018 1.717,-1.017 z m 2.004,-1.163 -1.717,1.018 -1.717,-1.018 1.717,-1.017 z m 2.003,-1.163 -1.717,1.018 -1.717,-1.018 1.717,-1.017 z m 2.004,-1.163 -1.717,1.018 -1.717,-1.018 1.717,-1.017 z m 2.004,-1.163 -1.717,1.018 -1.717,-1.018 1.717,-1.017 z m 4.007,-2.326 -3.721,2.18 -1.717,-1.018 3.72,-2.18 z m 2.004,1.163 -1.717,1.018 -1.717,-1.018 1.717,-1.017 z m -2.004,1.163 -1.717,1.018 -1.717,-1.018 1.717,-1.017 z m -2.004,1.163 -1.717,1.018 -1.717,-1.018 1.717,-1.017 z m -2.004,1.163 -1.717,1.018 -1.717,-1.018 1.717,-1.017 z m -2.004,1.163 -1.717,1.018 -1.717,-1.018 1.717,-1.017 z m -12.021,6.977 -1.717,1.018 -1.717,-1.018 1.717,-1.017 z m -5.01,1.744 -1.716,1.018 -0.715,-0.436 1.717,-1.017 z m 1.003,0.58 -1.717,1.019 -0.715,-0.436 1.717,-1.014 z m -2.004,1.164 -1.717,1.018 -0.715,-0.436 1.717,-1.017 z m 4.007,-2.326 -1.717,1.018 -0.715,-0.436 1.717,-1.017 z"
     fill="#b6b6b6"
     stroke="none"
     id="path17127" />
  <defs
     id="defs17152">
    <linearGradient
       id="d"
       x1="0.82999998"
       y1="0"
       x2="0.17"
       y2="1">
      <stop
         offset="0%"
         stop-color="#339c8b"
         id="stop17129" />
      <stop
         offset="100%"
         stop-color="#45c3ae"
         id="stop17131" />
    </linearGradient>
    <linearGradient
       id="b"
       x1="0"
       y1="0.5"
       x2="1"
       y2="0.5">
      <stop
         offset="0%"
         stop-color="#d6d6d6"
         id="stop17134" />
      <stop
         offset="100%"
         stop-color="#c9c9c9"
         id="stop17136" />
    </linearGradient>
    <linearGradient
       id="e"
       x1="0"
       y1="0"
       x2="1"
       y2="1">
      <stop
         offset="0%"
         stop-color="#0af"
         id="stop17139" />
      <stop
         offset="100%"
         stop-color="#00387f"
         id="stop17141" />
    </linearGradient>
    <linearGradient
       id="g"
       x1="0"
       y1="0.82999998"
       x2="1"
       y2="0.17">
      <stop
         offset="0%"
         stop-color="#339c8b"
         id="stop17144" />
      <stop
         offset="100%"
         stop-color="#45c3ae"
         id="stop17146" />
    </linearGradient>
    <linearGradient
       xlink:href="#b"
       id="a"
       x1="262.586"
       y1="12.884"
       x2="271.64801"
       y2="12.884"
       gradientTransform="scale(0.2761,3.62198)"
       gradientUnits="userSpaceOnUse" />
    <path
       id="c"
       d="M 9.337,23.344 1.378,18.447 v -1.306 l 7.959,4.897 z" />
    <path
       id="f"
       d="M 5.309,41.53 Q 4.124,40.926 3.982,42.3 3.887,43.904 5.245,44.588 6.288,44.98 6.462,43.969 6.636,42.365 5.309,41.53 Z" />
  </defs>
</svg>